<svg width="17" height="17" viewBox="0 0 17 17" fill="none" xmlns="http://www.w3.org/2000/svg">
<path d="M13.902 0.0010376H4.08499C3.23979 0.0269012 2.43947 0.387396 1.86001 1.00323C1.28055 1.61907 0.969406 2.43983 0.994992 3.28503V13.716C0.969677 14.5611 1.28095 15.3816 1.86038 15.9972C2.43981 16.6128 3.23997 16.9732 4.08499 16.9991H13.903C14.7484 16.9737 15.549 16.6136 16.1289 15.9979C16.7088 15.3822 17.0203 14.5614 16.995 13.716V3.28503C17.0077 2.86628 16.9377 2.44913 16.7891 2.05743C16.6405 1.66573 16.4161 1.30717 16.1289 1.0022C15.8417 0.697225 15.4972 0.451842 15.115 0.28006C14.7329 0.108278 14.3207 0.0134577 13.902 0.0010376ZM7.49197 13.622H5.50299V11.511H7.49197V13.622ZM7.49197 9.28104H5.50299V7.17004H7.49197V9.28104ZM12.006 9.28104H10.017V7.17004H12.004L12.006 9.28104ZM14.993 4.26004H2.99298V3.26004H14.993V4.26004Z" fill="#2C7873"/>
</svg>
