<svg width="50" height="61" viewBox="0 0 50 61" fill="none" xmlns="http://www.w3.org/2000/svg">
<path d="M6.953 60C6.30356 60.0103 5.66956 59.8017 5.15299 59.408C4.90722 59.2346 4.70757 59.0037 4.57145 58.7354C4.43533 58.4672 4.36685 58.1698 4.37199 57.869V51.237C2.89264 50.4287 1.72455 49.1508 1.05199 47.605C0.347433 46.0145 -0.0111529 44.2925 -7.32936e-06 42.553V11.211C-7.32936e-06 7.31633 1.99233 4.47433 5.977 2.685C9.96166 0.895664 16.3283 0.00100708 25.077 0.00100708C33.723 0.00100708 40.038 0.895664 44.022 2.685C48.006 4.47433 49.9987 7.31633 50 11.211V42.553C50.0103 44.2931 49.6507 46.0154 48.945 47.606C48.2724 49.1518 47.1043 50.4297 45.625 51.238V57.87C45.6301 58.1708 45.5617 58.4682 45.4255 58.7365C45.2894 59.0047 45.0898 59.2356 44.844 59.409C44.3274 59.8027 43.6934 60.0113 43.044 60.001H41.56C40.8864 60.0188 40.2262 59.8104 39.685 59.409C39.4392 59.2356 39.2396 59.0047 39.1034 58.7365C38.9673 58.4682 38.8989 58.1708 38.904 57.87V53.528H11.094V57.87C11.0991 58.1708 11.0307 58.4682 10.8945 58.7365C10.7584 59.0047 10.5588 59.2356 10.313 59.409C9.77174 59.8104 9.1116 60.0188 8.438 60.001L6.953 60ZM4.68699 27.553H45.312V13.895H4.688L4.68699 27.553ZM12.968 44.842C13.5355 44.8525 14.099 44.7457 14.6233 44.5284C15.1476 44.3111 15.6214 43.9879 16.015 43.579C16.8166 42.7545 17.265 41.6499 17.265 40.5C17.265 39.3501 16.8166 38.2455 16.015 37.421C15.6151 37.0205 15.1401 36.7028 14.6173 36.486C14.0944 36.2692 13.534 36.1576 12.968 36.1576C12.402 36.1576 11.8416 36.2692 11.3187 36.486C10.7959 36.7028 10.3209 37.0205 9.921 37.421C9.11941 38.2455 8.67095 39.3501 8.67095 40.5C8.67095 41.6499 9.11941 42.7545 9.921 43.579C10.3148 43.988 10.7887 44.3113 11.3132 44.5286C11.8377 44.7459 12.4004 44.8526 12.968 44.842ZM37.031 44.842C37.5985 44.8525 38.162 44.7457 38.6863 44.5284C39.2106 44.3111 39.6844 43.9879 40.078 43.579C40.8796 42.7545 41.328 41.6499 41.328 40.5C41.328 39.3501 40.8796 38.2455 40.078 37.421C39.6781 37.0205 39.2031 36.7028 38.6803 36.486C38.1574 36.2692 37.597 36.1576 37.031 36.1576C36.465 36.1576 35.9046 36.2692 35.3817 36.486C34.8589 36.7028 34.3839 37.0205 33.984 37.421C33.1824 38.2455 32.734 39.3501 32.734 40.5C32.734 41.6499 33.1824 42.7545 33.984 43.579C34.3776 43.9879 34.8514 44.3111 35.3757 44.5284C35.9 44.7457 36.4635 44.8525 37.031 44.842ZM4.68699 9.158H45.312C44.062 7.78934 41.6663 6.71034 38.125 5.92101C33.831 5.05968 29.4569 4.66272 25.078 4.737C20.3406 4.6205 15.6034 4.9776 10.937 5.80299C7.65632 6.51299 5.57333 7.63134 4.688 9.158H4.68699ZM11.093 48.79H38.906C39.7792 48.8023 40.6439 48.6169 41.4353 48.2477C42.2267 47.8785 42.9243 47.335 43.476 46.658C44.6727 45.3098 45.3269 43.5657 45.312 41.763V32.289H4.688V41.763C4.67309 43.5657 5.32727 45.3098 6.52399 46.658C7.07564 47.335 7.77328 47.8785 8.56469 48.2477C9.3561 48.6169 10.2198 48.8023 11.093 48.79Z" fill="#FFD800"/>
</svg>
