<svg width="35" height="35" viewBox="0 0 35 35" fill="none" xmlns="http://www.w3.org/2000/svg">
<mask id="mask0_534_11" style="mask-type:luminance" maskUnits="userSpaceOnUse" x="0" y="0" width="35" height="35">
<path d="M35 0H0V35H35V0Z" fill="white"/>
</mask>
<g mask="url(#mask0_534_11)">
<path d="M17.5159 -0.0339355C14.0515 -0.0336436 10.665 0.989844 7.7846 2.90711C4.90419 4.82437 2.65926 7.5493 1.33369 10.7373C0.00812392 13.9253 -0.338553 17.4333 0.337499 20.8176C1.01355 24.2018 2.68198 27.3104 5.13179 29.7503C7.58159 32.1901 10.7028 33.8516 14.1006 34.5247C17.4985 35.1977 21.0204 34.8522 24.2211 33.5316C27.4218 32.211 30.1574 29.9748 32.0821 27.1057C34.0068 24.2367 35.0341 20.8635 35.0341 17.4129C35.034 15.1217 34.5808 12.8529 33.7004 10.7361C32.8199 8.61928 31.5295 6.69592 29.9028 5.07583C28.2761 3.45574 26.345 2.17064 24.2196 1.2939C22.0943 0.417166 19.8163 -0.0340324 17.5159 -0.0339355ZM24.6343 25.2217V26.429C24.6344 26.5874 24.6032 26.7444 24.5423 26.8908C24.4815 27.0372 24.3923 27.1703 24.2798 27.2823C24.1672 27.3944 24.0337 27.4832 23.8867 27.5438C23.7396 27.6044 23.5821 27.6356 23.423 27.6355H11.3081C10.9898 27.6356 10.6746 27.5732 10.3806 27.4519C10.0865 27.3307 9.8193 27.1529 9.59425 26.9287C9.36919 26.7046 9.19068 26.4384 9.06893 26.1455C8.94718 25.8526 8.88456 25.5387 8.88466 25.2217V10.0381C8.88466 9.39789 9.13998 8.78394 9.59446 8.33127C10.0489 7.8786 10.6653 7.6243 11.3081 7.6243H23.423C23.7443 7.62449 24.0524 7.75177 24.2796 7.97816C24.5067 8.20454 24.6343 8.51149 24.6343 8.83155V25.2217ZM27.0577 10.0381V26.429C27.0577 26.7489 26.9301 27.0558 26.7029 27.2821C26.4758 27.5084 26.1677 27.6355 25.8464 27.6355H25.5182C25.7331 27.2694 25.8464 26.853 25.8464 26.429V8.83155C25.8463 8.40752 25.733 7.99115 25.5182 7.62504H25.8464C26.1677 7.62504 26.4758 7.75215 26.7029 7.97842C26.9301 8.20468 27.0577 8.51156 27.0577 8.83155V10.0381Z" fill="#60CEDD"/>
</g>
<path d="M20.5054 19.2187C20.5054 19.2187 20.0491 18.6727 19.5423 19.0498C19.1652 19.3302 18.4888 19.9537 18.3258 20.1057C17.6959 19.7703 17.0937 19.3859 16.5247 18.956C15.73 18.2761 15.0541 17.4697 14.5243 16.5696L14.2642 16.0818C14.3546 15.9851 15.0473 15.2457 15.3474 14.8443C15.7253 14.341 15.1785 13.885 15.1785 13.885C15.1785 13.885 13.6389 12.3508 13.2878 12.0468C13.1857 11.9592 13.0619 11.9004 12.9292 11.8765C12.7966 11.8526 12.66 11.8645 12.5335 11.911C11.7964 12.3855 11.0318 12.7965 10.9866 14.7823C10.9866 16.6404 12.4009 18.5553 13.9308 20.0393C15.4645 21.7137 17.5701 23.3932 19.6053 23.3903C21.5975 23.346 22.0109 22.5844 22.4873 21.8502C22.5342 21.7243 22.5464 21.5883 22.5225 21.4561C22.4987 21.324 22.4397 21.2007 22.3517 21.099C22.0465 20.7492 20.5062 19.2165 20.5062 19.2165L20.5054 19.2187Z" fill="#60CEDD"/>
</svg>
