<svg width="43" height="30" viewBox="0 0 43 30" fill="none" xmlns="http://www.w3.org/2000/svg">
<path d="M21.25 24.234C21.6619 24.239 22.0605 24.0883 22.366 23.812C22.5151 23.6949 22.6357 23.5454 22.7186 23.3748C22.8015 23.2043 22.8445 23.0171 22.8445 22.8275C22.8445 22.6379 22.8015 22.4507 22.7186 22.2802C22.6357 22.1096 22.5151 21.9601 22.366 21.843C22.058 21.5712 21.6613 21.4212 21.2505 21.4212C20.8397 21.4212 20.443 21.5712 20.135 21.843C19.9859 21.9601 19.8653 22.1096 19.7824 22.2802C19.6996 22.4507 19.6565 22.6379 19.6565 22.8275C19.6565 23.0171 19.6996 23.2043 19.7824 23.3748C19.8653 23.5454 19.9859 23.6949 20.135 23.812C20.4403 24.0881 20.8385 24.2388 21.25 24.234ZM21.25 16.406C21.6619 16.411 22.0605 16.2603 22.366 15.984C22.5151 15.8669 22.6357 15.7174 22.7186 15.5468C22.8015 15.3763 22.8445 15.1891 22.8445 14.9995C22.8445 14.8099 22.8015 14.6227 22.7186 14.4522C22.6357 14.2816 22.5151 14.1322 22.366 14.015C22.058 13.7432 21.6613 13.5932 21.2505 13.5932C20.8397 13.5932 20.443 13.7432 20.135 14.015C19.9859 14.1322 19.8653 14.2816 19.7824 14.4522C19.6996 14.6227 19.6565 14.8099 19.6565 14.9995C19.6565 15.1891 19.6996 15.3763 19.7824 15.5468C19.8653 15.7174 19.9859 15.8669 20.135 15.984C20.4403 16.2601 20.8385 16.4108 21.25 16.406ZM21.25 8.578C21.6619 8.58303 22.0605 8.43231 22.366 8.156C22.5151 8.03885 22.6357 7.88935 22.7186 7.7188C22.8015 7.54826 22.8445 7.36113 22.8445 7.1715C22.8445 6.98188 22.8015 6.79471 22.7186 6.62417C22.6357 6.45362 22.5151 6.30415 22.366 6.187C22.058 5.91521 21.6613 5.76522 21.2505 5.76522C20.8397 5.76522 20.443 5.91521 20.135 6.187C19.9859 6.30415 19.8653 6.45362 19.7824 6.62417C19.6996 6.79471 19.6565 6.98188 19.6565 7.1715C19.6565 7.36113 19.6996 7.54826 19.7824 7.7188C19.8653 7.88935 19.9859 8.03885 20.135 8.156C20.4403 8.43207 20.8385 8.58277 21.25 8.578ZM39.313 30H3.18801C2.36042 30.018 1.55652 29.723 0.937006 29.174C0.643279 28.9332 0.406818 28.6301 0.244753 28.2866C0.0826886 27.9431 -0.000914371 27.5678 9.7007e-06 27.188V20.016C1.25033 19.7983 2.39652 19.1815 3.26701 18.258C4.11366 17.3863 4.58101 16.2151 4.56701 15C4.57855 13.7786 4.11199 12.601 3.26701 11.719C2.4074 10.7854 1.25483 10.1734 9.7007e-06 9.984V2.812C-0.00103558 2.43227 0.0824063 2.05705 0.244295 1.71355C0.406184 1.37006 0.642462 1.06687 0.936007 0.825981C1.55577 0.276711 2.36008 -0.018284 3.18801 -7.55582e-06H39.313C40.1406 -0.0180304 40.9445 0.276948 41.564 0.825981C41.8576 1.06687 42.0938 1.37006 42.2557 1.71355C42.4176 2.05705 42.5011 2.43227 42.5 2.812V9.984C41.2453 10.1731 40.0928 10.7848 39.233 11.718C38.388 12.6 37.9215 13.7776 37.933 14.999C37.919 16.2141 38.3864 17.3853 39.233 18.257C40.1035 19.1805 41.2497 19.7973 42.5 20.015V27.187C42.5011 27.5667 42.4176 27.9419 42.2557 28.2854C42.0938 28.6289 41.8576 28.9321 41.564 29.173C40.9447 29.7224 40.1407 30.0177 39.313 30ZM39.313 27.188V22.079C38.0117 21.3079 36.889 20.2694 36.019 19.032C35.1893 17.8516 34.7441 16.4439 34.7441 15.001C34.7441 13.5581 35.1893 12.1504 36.019 10.97C36.889 9.73265 38.0117 8.69409 39.313 7.923V2.81399H3.18801V7.923C4.50766 8.67891 5.64191 9.71989 6.50801 10.97C7.32133 12.1571 7.75656 13.5625 7.75656 15.0015C7.75656 16.4405 7.32133 17.8459 6.50801 19.033C5.64191 20.2831 4.50766 21.3241 3.18801 22.08V27.189L39.313 27.188Z" fill="black"/>
</svg>
