<svg width="43" height="31" viewBox="0 0 43 31" fill="none" xmlns="http://www.w3.org/2000/svg">
<path d="M42.5 2.81299V27.188C42.4964 27.5665 42.4088 27.9395 42.2434 28.28C42.0781 28.6205 41.8392 28.9201 41.544 29.157C40.9333 29.7095 40.1365 30.0109 39.313 30.001H3.188C2.36454 30.0109 1.56771 29.7095 0.957001 29.157C0.661612 28.9202 0.422523 28.6207 0.257019 28.2802C0.091515 27.9396 0.00372898 27.5666 0 27.188V2.81299C0.00360844 2.43448 0.0912405 2.0615 0.256569 1.72098C0.421897 1.38047 0.660796 1.08093 0.956001 0.843999C1.56697 0.291298 2.3642 -0.0101573 3.188 4.659e-06H39.313C40.1365 -0.00990426 40.9333 0.291534 41.544 0.843999C41.8392 1.08093 42.0781 1.38047 42.2434 1.72098C42.4088 2.0615 42.4964 2.43448 42.5 2.81299ZM3.188 7.922H39.313V2.81299H3.188V7.922ZM3.188 13.969V27.188H39.313V13.969H3.188Z" fill="black"/>
</svg>
