<svg width="40" height="40" viewBox="0 0 40 40" fill="none" xmlns="http://www.w3.org/2000/svg">
<g clip-path="url(#clip0_268_138)">
<path d="M20 40C31.0457 40 40 31.0457 40 20C40 8.9543 31.0457 0 20 0C8.9543 0 0 8.9543 0 20C0 31.0457 8.9543 40 20 40Z" fill="#EA4C89"/>
<path d="M20.1813 5.86626C17.3514 5.87046 14.5864 6.71345 12.2355 8.28868C9.88459 9.86391 8.05343 12.1007 6.97341 14.7163C5.89338 17.332 5.61298 20.209 6.16763 22.984C6.72228 25.7589 8.08708 28.3072 10.0896 30.3067C12.092 32.3062 14.6423 33.6673 17.4181 34.2178C20.1939 34.7683 23.0705 34.4836 25.6846 33.3997C28.2986 32.3158 30.5327 30.4814 32.1044 28.1281C33.6761 25.7749 34.515 23.0086 34.515 20.1788C34.5074 16.3815 32.9941 12.7423 30.3071 10.0592C27.62 7.37611 23.9785 5.86823 20.1813 5.86626ZM29.6125 12.6231C31.3041 14.713 32.246 17.3098 32.2875 19.9981C30.4416 19.6424 28.5662 19.4611 26.6863 19.4569C25.7634 19.4542 24.8413 19.5078 23.925 19.6175C23.8456 19.425 23.7669 19.2331 23.6838 19.04C23.4406 18.4681 23.1788 17.9006 22.9075 17.3419C27.145 15.5956 29.1894 13.1731 29.6125 12.6244V12.6231ZM20.1813 8.10751C23.1178 8.10453 25.9545 9.17249 28.16 11.1113C27.8225 11.5719 25.9913 13.8613 21.9056 15.4038C20.5699 12.9839 19.0821 10.6511 17.4513 8.41939C18.3464 8.2116 19.2623 8.10737 20.1813 8.10751ZM14.9794 9.28126C16.5761 11.5013 18.0552 13.8037 19.4106 16.1788C15.8342 17.1041 12.159 17.5937 8.46502 17.6369H8.3469C8.74277 15.8305 9.54609 14.1384 10.6956 12.6897C11.845 11.2411 13.3102 10.0742 14.9794 9.27813V9.28126ZM8.0719 20.2006C8.0719 20.1013 8.07189 20.0013 8.07689 19.9019C8.14877 19.9019 8.25564 19.9019 8.39502 19.9019C12.4856 19.877 16.554 19.2986 20.4894 18.1825C20.8156 18.8206 21.1256 19.4681 21.4144 20.1156C21.2788 20.1544 21.145 20.1938 21.0119 20.2369C14.9594 22.1919 11.6331 27.3669 11.1206 28.2131C9.15515 26.0067 8.07 23.1543 8.0719 20.1994V20.2006ZM20.1813 32.2938C17.5087 32.2966 14.9109 31.4117 12.7956 29.7781C13.1413 29.1 15.6525 24.5788 22.285 22.2713L22.2988 22.2663C23.4351 25.2097 24.293 28.2533 24.8613 31.3569C23.38 31.9782 21.7894 32.2969 20.1831 32.2944L20.1813 32.2938ZM27.04 30.1619C26.5042 27.2718 25.728 24.4315 24.7194 21.6706C25.526 21.5471 26.3409 21.4859 27.1569 21.4875C28.8381 21.4858 30.5112 21.7195 32.1275 22.1819C31.8585 23.7854 31.2693 25.3183 30.3953 26.6893C29.5213 28.0602 28.3802 29.2412 27.04 30.1619Z" fill="white"/>
</g>
<defs>
<clipPath id="clip0_268_138">
<rect width="40" height="40" fill="white"/>
</clipPath>
</defs>
</svg>
