<svg width="48" height="48" viewBox="0 0 48 48" fill="none" xmlns="http://www.w3.org/2000/svg">
<g clip-path="url(#clip0_268_138)" filter="url(#filter0_d_268_138)">
<path d="M24 40C35.0457 40 44 31.0457 44 20C44 8.9543 35.0457 0 24 0C12.9543 0 4 8.9543 4 20C4 31.0457 12.9543 40 24 40Z" fill="#EA4C89"/>
<path d="M24.1813 5.86626C21.3514 5.87046 18.5864 6.71345 16.2355 8.28868C13.8846 9.8639 12.0534 12.1007 10.9734 14.7163C9.89338 17.332 9.61298 20.209 10.1676 22.984C10.7223 25.7589 12.0871 28.3072 14.0896 30.3067C16.092 32.3062 18.6423 33.6673 21.4181 34.2178C24.1939 34.7683 27.0705 34.4836 29.6846 33.3997C32.2986 32.3158 34.5327 30.4814 36.1044 28.1281C37.6761 25.7749 38.515 23.0086 38.515 20.1788C38.5074 16.3815 36.9941 12.7423 34.3071 10.0592C31.62 7.37611 27.9785 5.86823 24.1813 5.86626ZM33.6125 12.6231C35.3041 14.713 36.246 17.3098 36.2875 19.9981C34.4416 19.6424 32.5662 19.4611 30.6863 19.4569C29.7634 19.4542 28.8413 19.5078 27.925 19.6175C27.8456 19.425 27.7669 19.2331 27.6838 19.04C27.4406 18.4681 27.1788 17.9006 26.9075 17.3419C31.145 15.5956 33.1894 13.1731 33.6125 12.6244V12.6231ZM24.1813 8.10751C27.1178 8.10453 29.9545 9.17249 32.16 11.1113C31.8225 11.5719 29.9913 13.8613 25.9056 15.4038C24.5699 12.9839 23.0821 10.6511 21.4513 8.41939C22.3464 8.2116 23.2623 8.10737 24.1813 8.10751ZM18.9794 9.28126C20.5761 11.5013 22.0552 13.8037 23.4106 16.1788C19.8342 17.1041 16.159 17.5937 12.465 17.6369H12.3469C12.7428 15.8305 13.5461 14.1384 14.6956 12.6897C15.845 11.2411 17.3102 10.0742 18.9794 9.27813V9.28126ZM12.0719 20.2006C12.0719 20.1013 12.0719 20.0013 12.0769 19.9019C12.1488 19.9019 12.2556 19.9019 12.395 19.9019C16.4856 19.877 20.554 19.2986 24.4894 18.1825C24.8156 18.8206 25.1256 19.4681 25.4144 20.1156C25.2788 20.1544 25.145 20.1938 25.0119 20.2369C18.9594 22.1919 15.6331 27.3669 15.1206 28.2131C13.1552 26.0067 12.07 23.1543 12.0719 20.1994V20.2006ZM24.1813 32.2938C21.5087 32.2966 18.9109 31.4117 16.7956 29.7781C17.1413 29.1 19.6525 24.5788 26.285 22.2713L26.2988 22.2663C27.4351 25.2097 28.293 28.2533 28.8613 31.3569C27.38 31.9782 25.7894 32.2969 24.1831 32.2944L24.1813 32.2938ZM31.04 30.1619C30.5042 27.2718 29.728 24.4315 28.7194 21.6706C29.526 21.5471 30.3409 21.4859 31.1569 21.4875C32.8381 21.4858 34.5112 21.7195 36.1275 22.1819C35.8585 23.7854 35.2693 25.3183 34.3953 26.6893C33.5213 28.0602 32.3802 29.2412 31.04 30.1619Z" fill="white"/>
</g>
<defs>
<filter id="filter0_d_268_138" x="0" y="0" width="48" height="48" filterUnits="userSpaceOnUse" color-interpolation-filters="sRGB">
<feFlood flood-opacity="0" result="BackgroundImageFix"/>
<feColorMatrix in="SourceAlpha" type="matrix" values="0 0 0 0 0 0 0 0 0 0 0 0 0 0 0 0 0 0 127 0" result="hardAlpha"/>
<feOffset dy="4"/>
<feGaussianBlur stdDeviation="2"/>
<feComposite in2="hardAlpha" operator="out"/>
<feColorMatrix type="matrix" values="0 0 0 0 0 0 0 0 0 0 0 0 0 0 0 0 0 0 0.25 0"/>
<feBlend mode="normal" in2="BackgroundImageFix" result="effect1_dropShadow_268_138"/>
<feBlend mode="normal" in="SourceGraphic" in2="effect1_dropShadow_268_138" result="shape"/>
</filter>
<clipPath id="clip0_268_138">
<rect width="40" height="40" fill="white" transform="translate(4)"/>
</clipPath>
</defs>
</svg>
