<svg width="35" height="35" viewBox="0 0 35 35" fill="none" xmlns="http://www.w3.org/2000/svg">
<g clip-path="url(#clip0_307_27)">
<path d="M23.867 19.2102C24.0625 19.9841 21.921 19.7382 21.3974 20.4624C20.8739 21.1866 19.595 20.7001 19.2988 20.5609C19.0026 20.4217 17.8666 20.8853 17.9658 20.0974C18.0651 19.3095 18.7552 19.2621 19.4965 18.937C20.2378 18.6119 21.3056 17.5345 20.7798 17.3938C20.0393 17.1757 19.3571 16.7943 18.7835 16.2777C18.2099 15.7611 17.7594 15.1225 17.4652 14.4088C17.3171 14.3807 17.3542 12.7671 16.7121 12.7204C16.0723 12.7909 15.4266 12.7909 14.7868 12.7204C13.8478 12.5353 14.0463 11.9325 13.8982 10.6337C13.7501 9.33485 14.2943 9.75176 14.5876 9.33486C14.6154 9.29836 14.6461 9.26419 14.6794 9.23267C12.9552 9.82325 11.4584 10.9373 10.3978 12.4195C9.33727 13.9016 8.76587 15.6779 8.76337 17.5004V17.5182C9.4017 17.5596 10.5651 17.6944 10.6199 18.1328C10.6939 18.7378 10.6199 19.4946 11.1493 19.7212C11.6788 19.9478 11.8306 18.8141 12.2845 19.1162C12.7385 19.4183 13.9485 19.7086 13.9485 20.2455C13.9485 20.7823 13.7219 21.6124 13.9485 21.7642C14.3919 22.1592 14.774 22.6179 15.0822 23.1253C15.0822 23.2734 15.4029 24.0457 15.3044 24.3397C15.1064 24.84 14.8128 25.297 14.4402 25.6852C16.0892 26.3027 17.8863 26.4073 19.5958 25.9853C21.3053 25.5634 22.8474 24.6346 24.0197 23.3207C25.192 22.0069 25.9397 20.3694 26.1649 18.6231C26.3901 16.8768 26.0821 15.1032 25.2814 13.535C25.2457 14.1968 25.3177 14.8601 25.4947 15.4988C26.3463 16.6585 23.4213 17.456 23.8656 19.2102H23.867Z" fill="#60CEDD"/>
<path d="M17.5 1.56732e-08C14.0386 -0.000146442 10.6549 1.02614 7.77685 2.94905C4.89876 4.87196 2.65553 7.60513 1.33085 10.8029C0.00616732 14.0007 -0.340467 17.5196 0.334779 20.9144C1.01003 24.3092 2.67683 27.4275 5.12439 29.875C7.57196 32.3225 10.6904 33.9893 14.0852 34.6645C17.4801 35.3397 20.999 34.9931 24.1969 33.6685C27.3947 32.3438 30.128 30.1006 32.0509 27.2226C33.9739 24.3446 35.0002 20.961 35 17.4996C34.9998 12.8585 33.156 8.40753 29.8742 5.12576C26.5923 1.84398 22.1413 0.000196395 17.5 1.56732e-08ZM17.5 28.0541C15.4124 28.0542 13.3717 27.4353 11.6359 26.2756C9.90008 25.116 8.54714 23.4676 7.7482 21.539C6.94925 19.6104 6.74017 17.4882 7.1474 15.4407C7.55463 13.3933 8.55988 11.5126 10.036 10.0365C11.5122 8.56042 13.3929 7.5552 15.4404 7.14798C17.4878 6.74076 19.6101 6.94983 21.5387 7.74876C23.4674 8.54769 25.1158 9.90059 26.2755 11.6364C27.4352 13.3721 28.0541 15.4128 28.0539 17.5004C28.0506 20.2984 26.9376 22.9808 24.9591 24.9593C22.9806 26.9378 20.2981 28.0507 17.5 28.0541Z" fill="#60CEDD"/>
</g>
<defs>
<clipPath id="clip0_307_27">
<rect width="35" height="35" fill="white"/>
</clipPath>
</defs>
</svg>
