<svg width="40" height="40" viewBox="0 0 40 40" fill="none" xmlns="http://www.w3.org/2000/svg">
<path d="M20 40C31.0457 40 40 31.0457 40 20C40 8.9543 31.0457 0 20 0C8.9543 0 0 8.9543 0 20C0 31.0457 8.9543 40 20 40Z" fill="#FFD800"/>
<g clip-path="url(#clip0_268_353)">
<path d="M9.64051 30.2839H11.2043L26.9494 14.5389L25.3855 12.975L9.64051 28.7201V30.2839ZM31.4632 13.0106L26.9138 8.46123L28.4066 6.96847C28.8094 6.56566 29.307 6.36426 29.8994 6.36426C30.4917 6.36426 30.9893 6.56566 31.3921 6.96847L32.956 8.53231C33.3588 8.93512 33.5602 9.4327 33.5602 10.0251C33.5602 10.6174 33.3588 11.115 32.956 11.5178L31.4632 13.0106ZM29.9704 14.5033L12.0574 32.4164H7.508V27.8671L25.4211 9.95398L29.9704 14.5033ZM26.1675 13.757L25.3855 12.975L26.9494 14.5389L26.1675 13.757Z" fill="white"/>
</g>
<defs>
<clipPath id="clip0_268_353">
<rect width="26.0522" height="26.0522" fill="white" transform="translate(7.508 6.36426)"/>
</clipPath>
</defs>
</svg>
