<svg width="40" height="40" viewBox="0 0 40 40" fill="none" xmlns="http://www.w3.org/2000/svg">
<g clip-path="url(#clip0_268_131)">
<path d="M20 1.69592e-07C15.2823 -0.000613918 10.7163 1.66648 7.10888 4.70668C3.50144 7.74687 1.08482 11.9644 0.286123 16.614C-0.512577 21.2636 0.358061 26.0458 2.74416 30.1156C5.13026 34.1853 8.87821 37.2806 13.3256 38.8544V23.4437H10.4938V18.3813H13.3256V15.1069C13.3256 12.7656 14.4375 9.09875 19.3331 9.09875L23.7438 9.1175V14.0287H20.5431C20.3643 14.0195 20.1856 14.0499 20.0199 14.1179C19.8542 14.1859 19.7057 14.2897 19.5849 14.422C19.4641 14.5542 19.3741 14.7116 19.3214 14.8827C19.2687 15.0539 19.2546 15.2346 19.28 15.4119V18.39H23.8163L23.2963 23.445H19.28V39.9825C19.5194 39.9912 19.7588 40.0013 20 40.0013C25.3044 40.0013 30.3914 37.8941 34.1422 34.1434C37.8929 30.3927 40 25.3056 40 20.0012C40 14.6969 37.8929 9.60984 34.1422 5.85911C30.3914 2.10838 25.3044 0.00124948 20 0.00124948V1.69592e-07Z" fill="#294DA5"/>
</g>
<defs>
<clipPath id="clip0_268_131">
<rect width="40" height="40" fill="white"/>
</clipPath>
</defs>
</svg>
