<svg width="25" height="27" viewBox="0 0 25 27" fill="none" xmlns="http://www.w3.org/2000/svg">
<path d="M20.937 0.225006H3.613C1.89374 0.225006 0.5 1.61874 0.5 3.33801V22.898C0.5 24.6173 1.89374 26.011 3.613 26.011H20.937C22.6563 26.011 24.05 24.6173 24.05 22.898V3.33801C24.05 1.61874 22.6563 0.225006 20.937 0.225006Z" fill="#FFD800"/>
<path d="M5.55908 7.118V19.118" stroke="#1A2E36" stroke-width="1.5" stroke-miterlimit="10"/>
<path d="M10.064 7.118V19.118" stroke="#1A2E36" stroke-width="1.5" stroke-miterlimit="10"/>
<path d="M14.4861 7.118V19.118" stroke="#1A2E36" stroke-width="1.5" stroke-miterlimit="10"/>
<path d="M18.991 7.118V19.118" stroke="#2E2E2E" stroke-width="1.5"/>
<path d="M5.55908 17.118C6.66365 17.118 7.55908 16.2226 7.55908 15.118C7.55908 14.0134 6.66365 13.118 5.55908 13.118C4.45451 13.118 3.55908 14.0134 3.55908 15.118C3.55908 16.2226 4.45451 17.118 5.55908 17.118Z" fill="#2E2E2E"/>
<path d="M10.064 12.722C11.1685 12.722 12.064 11.8266 12.064 10.722C12.064 9.61743 11.1685 8.722 10.064 8.722C8.9594 8.722 8.06396 9.61743 8.06396 10.722C8.06396 11.8266 8.9594 12.722 10.064 12.722Z" fill="#2E2E2E"/>
<path d="M14.4861 19.118C15.5907 19.118 16.4861 18.2226 16.4861 17.118C16.4861 16.0134 15.5907 15.118 14.4861 15.118C13.3815 15.118 12.4861 16.0134 12.4861 17.118C12.4861 18.2226 13.3815 19.118 14.4861 19.118Z" fill="#2E2E2E"/>
<path d="M19 15C20.1046 15 21 14.1046 21 13C21 11.8954 20.1046 11 19 11C17.8954 11 17 11.8954 17 13C17 14.1046 17.8954 15 19 15Z" fill="#2E2E2E"/>
</svg>
