<svg width="44" height="36" viewBox="0 0 44 36" fill="none" xmlns="http://www.w3.org/2000/svg">
<path d="M0.950981 13.311C1.70103 12.9849 2.5328 12.8958 3.3349 13.0556C4.137 13.2154 4.87113 13.6164 5.43898 14.205L8.99598 17.216L19.072 11.487L7.67198 4.943C6.63698 4.351 6.30598 2.767 7.11798 2.314L8.40398 1.58401C9.51022 1.02331 10.7339 0.733623 11.9741 0.738839C13.2143 0.744055 14.4355 1.04402 15.537 1.61401L27.226 6.853L34.954 2.46201C35.9261 1.9937 37.0051 1.79191 38.0807 1.8773C39.1563 1.96269 40.19 2.33218 41.076 2.94801L42.896 4.023C43.931 4.634 44.252 6.21501 43.437 6.67901L12.673 24.171C11.8257 24.5091 10.8899 24.5557 10.0132 24.3033C9.13655 24.0509 8.36879 23.5139 7.83098 22.777L1.05198 15.493C0.389979 14.76 0.332981 13.662 0.950981 13.311Z" fill="#2C7873"/>
<path d="M40.398 35.595H1.96896C1.58826 35.5979 1.22194 35.4498 0.95031 35.183C0.678682 34.9163 0.523918 34.5527 0.519958 34.172C0.521398 33.9832 0.560015 33.7965 0.633614 33.6225C0.707212 33.4486 0.814353 33.2909 0.948906 33.1584C1.08346 33.0259 1.24279 32.9212 1.41782 32.8502C1.59284 32.7793 1.78011 32.7436 1.96896 32.745H40.398C40.7792 32.7421 41.146 32.8906 41.4177 33.158C41.6894 33.4254 41.8438 33.7898 41.847 34.171C41.8467 34.3588 41.809 34.5447 41.736 34.7178C41.6631 34.8909 41.5563 35.0477 41.422 35.179C41.1484 35.4467 40.7807 35.5961 40.398 35.595Z" fill="#2C7873"/>
</svg>
