<svg width="40" height="40" viewBox="0 0 40 40" fill="none" xmlns="http://www.w3.org/2000/svg">
<g clip-path="url(#clip0_266_125)">
<path d="M20 40C31.0457 40 40 31.0457 40 20C40 8.9543 31.0457 0 20 0C8.9543 0 0 8.9543 0 20C0 31.0457 8.9543 40 20 40Z" fill="#DC4335"/>
<path d="M15.2744 18.6181V21.8506H20.6206C20.405 23.2375 19.0044 25.9175 15.2744 25.9175C13.7168 25.8856 12.2338 25.2444 11.1435 24.1316C10.0533 23.0188 9.44264 21.5229 9.44264 19.965C9.44264 18.4071 10.0533 16.9113 11.1435 15.7984C12.2338 14.6856 13.7168 14.0444 15.2744 14.0125C16.6692 13.9845 18.0189 14.507 19.0313 15.4669L21.5938 13.0025C19.8879 11.3926 17.6229 10.5089 15.2775 10.5381C12.7773 10.5381 10.3796 11.5313 8.61171 13.2992C6.84382 15.0671 5.85065 17.4648 5.85065 19.965C5.85065 22.4652 6.84382 24.8629 8.61171 26.6308C10.3796 28.3987 12.7773 29.3919 15.2775 29.3919C20.715 29.3919 24.3275 25.5675 24.3275 20.1806C24.3253 19.6564 24.2758 19.1334 24.1794 18.6181H15.2744Z" fill="white"/>
<path d="M35.475 18.6181H32.7813V15.925H30.0882V18.6181H27.3944V21.3119H30.0882V24.005H32.7813V21.3119H35.475V18.6181Z" fill="white"/>
</g>
<defs>
<clipPath id="clip0_266_125">
<rect width="40" height="40" fill="white"/>
</clipPath>
</defs>
</svg>
