<svg width="36" height="35" viewBox="0 0 36 35" fill="none" xmlns="http://www.w3.org/2000/svg">
<path d="M35.618 15.9302L18.96 0.860014C18.7034 0.629072 18.3606 0.5 18.0038 0.5C17.647 0.5 17.3041 0.629072 17.0476 0.860014L0.386713 15.931C0.200613 16.1035 0.074329 16.3241 0.0241734 16.5642C-0.0259822 16.8042 0.002303 17.0528 0.105367 17.2777C0.208431 17.5027 0.38153 17.6936 0.602315 17.826C0.8231 17.9583 1.08141 18.0259 1.34387 18.02H3.90882V32.9042C3.91224 33.1171 3.96068 33.3273 4.05136 33.5227C4.14205 33.7182 4.27321 33.895 4.43734 34.0432C4.60146 34.1914 4.79533 34.308 5.00787 34.3864C5.2204 34.4647 5.44742 34.5033 5.67596 34.4998H14.1132V23.6364H21.8859V34.4989H30.3232C30.5516 34.5023 30.7786 34.4636 30.991 34.3852C31.2034 34.3068 31.3972 34.1902 31.5612 34.0421C31.7252 33.8939 31.8563 33.717 31.9469 33.5217C32.0375 33.3263 32.0859 33.1162 32.0894 32.9033V18.0192H34.659C34.9212 18.0245 35.1791 17.9565 35.3995 17.824C35.6198 17.6914 35.7925 17.5004 35.8952 17.2756C35.9979 17.0508 36.0259 16.8025 35.9757 16.5626C35.9255 16.3228 35.7993 16.1025 35.6133 15.9302H35.618Z" fill="white"/>
</svg>
