<svg width="40" height="40" viewBox="0 0 40 40" fill="none" xmlns="http://www.w3.org/2000/svg">
<path d="M38.79 18.649L21.021 1.39301C20.7473 1.12857 20.3816 0.980774 20.001 0.980774C19.6204 0.980774 19.2547 1.12857 18.981 1.39301L1.209 18.65C1.01049 18.8475 0.87578 19.1001 0.822279 19.3749C0.768778 19.6498 0.79895 19.9345 0.908888 20.192C1.01883 20.4496 1.20347 20.6682 1.43898 20.8198C1.67449 20.9713 1.95003 21.0487 2.22999 21.042H4.97099V38.085C4.97464 38.3288 5.02631 38.5694 5.12304 38.7932C5.21978 39.017 5.35969 39.2196 5.53476 39.3893C5.70983 39.5589 5.91663 39.6925 6.14334 39.7822C6.37005 39.8719 6.61222 39.916 6.856 39.912H15.856V27.473H24.147V39.911H33.147C33.3907 39.9148 33.6328 39.8706 33.8593 39.7809C34.0859 39.6911 34.2926 39.5576 34.4676 39.3879C34.6426 39.2182 34.7824 39.0158 34.879 38.792C34.9757 38.5683 35.0274 38.3277 35.031 38.084V21.041H37.772C38.0517 21.0471 38.3268 20.9692 38.5619 20.8175C38.7969 20.6657 38.9811 20.447 39.0906 20.1896C39.2002 19.9321 39.2301 19.6478 39.1765 19.3732C39.1229 19.0986 38.9883 18.8464 38.79 18.649Z" fill="#2C7873"/>
</svg>
