<svg width="31" height="30" viewBox="0 0 31 30" fill="none" xmlns="http://www.w3.org/2000/svg">
<path d="M10.5 23.0251H19.125C19.4341 23.0358 19.7398 22.9577 20.006 22.8001C20.2638 22.6284 20.4762 22.3967 20.625 22.1251L23.55 15.3001C23.6137 15.118 23.6577 14.9296 23.681 14.7381C23.7124 14.5522 23.7311 14.3644 23.737 14.1761V13.2761C23.7608 13.1379 23.7511 12.9959 23.7086 12.8623C23.6662 12.7286 23.5923 12.6071 23.4931 12.5079C23.394 12.4088 23.2724 12.3348 23.1388 12.2924C23.0051 12.25 22.8632 12.2403 22.725 12.2641H14.7L15.788 7.08907C15.838 6.90507 15.838 6.71105 15.788 6.52705C15.7407 6.35684 15.6501 6.20181 15.525 6.07706L14.738 5.25206L8.69999 11.7751L8.39999 12.3751C8.30062 12.5727 8.24923 12.7909 8.24999 13.0121V20.7741C8.25283 21.0654 8.31403 21.3531 8.42996 21.6204C8.5459 21.8876 8.71423 22.129 8.925 22.3301C9.12475 22.5491 9.36799 22.724 9.63919 22.8437C9.91039 22.9634 10.2036 23.0251 10.5 23.0251ZM15 30.0001C13.002 30.0106 11.0234 29.6086 9.188 28.8191C5.58274 27.2886 2.71243 24.4183 1.18199 20.8131C0.40236 18.9677 0.000671387 16.9848 0.000671387 14.9816C0.000671387 12.9783 0.40236 10.9954 1.18199 9.15005C1.93957 7.36945 3.03472 5.75237 4.40699 4.38806C5.78464 3.02797 7.40673 1.94025 9.188 1.18207C11.0333 0.402437 13.0162 0.000732422 15.0195 0.000732422C17.0228 0.000732422 19.0057 0.402437 20.851 1.18207C24.4435 2.69955 27.3025 5.55851 28.82 9.15106C29.5996 10.9964 30.0013 12.9793 30.0013 14.9826C30.0013 16.9858 29.5996 18.9687 28.82 20.8141C28.0618 22.5953 26.9741 24.2174 25.614 25.5951C24.2497 26.9673 22.6326 28.0625 20.852 28.8201C19.0034 29.6121 17.0111 30.0138 15 30.0001ZM15 27.7501C17.9468 27.7474 20.8015 26.7233 23.0779 24.8521C25.3543 22.981 26.9116 20.3785 27.4846 17.4879C28.0575 14.5974 27.6106 11.5976 26.2201 8.99962C24.8295 6.40159 22.5813 4.36599 19.8583 3.23955C17.1354 2.11311 14.1061 1.96551 11.2865 2.82188C8.46694 3.67826 6.03146 5.48563 4.39491 7.93616C2.75835 10.3867 2.02196 13.3288 2.31116 16.2613C2.60037 19.1939 3.89728 21.9354 5.981 24.0191C7.14906 25.2249 8.55218 26.1782 10.1035 26.82C11.6549 27.4618 13.3214 27.7783 15 27.7501Z" fill="#FFD800"/>
</svg>
