<svg width="30" height="30" viewBox="0 0 30 30" fill="none" xmlns="http://www.w3.org/2000/svg">
<path d="M10.4998 23.025H19.1248C19.4339 23.0357 19.7397 22.9576 20.0058 22.8C20.2636 22.6283 20.476 22.3967 20.6248 22.125L23.5498 15.3C23.6136 15.1179 23.6575 14.9295 23.6808 14.738C23.7122 14.5522 23.7309 14.3644 23.7368 14.176V13.276C23.7606 13.1378 23.7509 12.9959 23.7085 12.8622C23.666 12.7285 23.5921 12.607 23.493 12.5079C23.3938 12.4087 23.2723 12.3348 23.1386 12.2923C23.0049 12.2499 22.863 12.2402 22.7248 12.264H14.6998L15.7878 7.089C15.8378 6.905 15.8378 6.71099 15.7878 6.52699C15.7405 6.35678 15.6499 6.20174 15.5248 6.077L14.7378 5.252L8.69981 11.775L8.39981 12.375C8.30044 12.5726 8.24905 12.7908 8.24981 13.012V20.774C8.25265 21.0653 8.31384 21.3531 8.42978 21.6203C8.54572 21.8876 8.71404 22.1289 8.92481 22.33C9.12456 22.549 9.36781 22.724 9.63901 22.8436C9.9102 22.9633 10.2034 23.0251 10.4998 23.025ZM14.9998 30C13.0018 30.0106 11.0232 29.6085 9.18781 28.819C5.58256 27.2886 2.71225 24.4183 1.18181 20.813C0.402177 18.9677 0.000488281 16.9848 0.000488281 14.9815C0.000488281 12.9782 0.402177 10.9953 1.18181 9.14999C1.93939 7.36939 3.03454 5.75231 4.40681 4.388C5.78445 3.02791 7.40654 1.94019 9.18781 1.18201C11.0331 0.402376 13.0161 0.000671387 15.0193 0.000671387C17.0226 0.000671387 19.0055 0.402376 20.8508 1.18201C24.4434 2.69949 27.3023 5.55845 28.8198 9.151C29.5994 10.9963 30.0011 12.9792 30.0011 14.9825C30.0011 16.9858 29.5994 18.9687 28.8198 20.814C28.0616 22.5953 26.9739 24.2174 25.6138 25.595C24.2495 26.9673 22.6324 28.0624 20.8518 28.82C19.0032 29.612 17.0109 30.0138 14.9998 30ZM14.9998 27.75C17.9466 27.7474 20.8013 26.7233 23.0777 24.8521C25.3541 22.9809 26.9114 20.3784 27.4844 17.4879C28.0573 14.5973 27.6104 11.5976 26.2199 8.99956C24.8293 6.40153 22.5811 4.36593 19.8581 3.23949C17.1352 2.11305 14.1059 1.96545 11.2863 2.82182C8.46676 3.67819 6.03128 5.48557 4.39472 7.9361C2.75817 10.3866 2.02178 13.3287 2.31098 16.2613C2.60019 19.1938 3.8971 21.9354 5.98081 24.019C7.14888 25.2249 8.552 26.1782 10.1033 26.8199C11.6547 27.4617 13.3212 27.7783 14.9998 27.75Z" fill="black"/>
</svg>
