<svg width="35" height="35" viewBox="0 0 35 35" fill="none" xmlns="http://www.w3.org/2000/svg">
<g clip-path="url(#clip0_307_31)">
<mask id="mask0_307_31" style="mask-type:luminance" maskUnits="userSpaceOnUse" x="0" y="0" width="35" height="35">
<path d="M35 0H0V34.9993H35V0Z" fill="white"/>
</mask>
<g mask="url(#mask0_307_31)">
<path d="M17.5174 -0.034668C14.0528 -0.034668 10.666 0.988605 7.78526 2.90574C4.90454 4.82287 2.65929 7.54776 1.33344 10.7358C0.00758836 13.9239 -0.339312 17.432 0.3366 20.8164C1.01251 24.2008 2.68088 27.3097 5.13073 29.7497C7.58058 32.1897 10.7019 33.8515 14.0999 34.5247C17.498 35.1979 21.0201 34.8523 24.221 33.5318C27.4219 32.2112 30.1577 29.975 32.0826 27.1058C34.0074 24.2366 35.0348 20.8634 35.0348 17.4126C35.0346 12.7854 33.189 8.3477 29.9039 5.07574C26.6187 1.80378 22.1633 -0.0344724 17.5174 -0.034668ZM17.5174 6.09397L27.8814 12.5323H7.15116L17.5174 6.09397ZM28.0124 22.8128C28.0125 23.0583 27.964 23.3015 27.8697 23.5284C27.7754 23.7553 27.6371 23.9615 27.4628 24.1352C27.2884 24.3088 27.0814 24.4466 26.8536 24.5405C26.6258 24.6344 26.3816 24.6827 26.1351 24.6826H8.90121C8.40336 24.6824 7.92595 24.4854 7.57392 24.1347C7.22189 23.7841 7.02403 23.3086 7.02384 22.8128V12.9415C7.02464 12.8344 7.03455 12.7276 7.05345 12.6222L16.9577 18.7737C16.9703 18.7811 16.9829 18.7862 16.9947 18.7929L17.0355 18.8135C17.1039 18.8495 17.1761 18.8778 17.2509 18.8976L17.2731 18.9027C17.3534 18.9219 17.4356 18.932 17.5181 18.933C17.6007 18.9324 17.683 18.9222 17.7632 18.9027L17.7854 18.8976C17.8604 18.8776 17.9328 18.8494 18.0015 18.8135L18.0415 18.7929C18.0534 18.7862 18.066 18.7811 18.0785 18.7737L27.9828 12.6222C28.0017 12.7276 28.0116 12.8344 28.0124 12.9415V22.8128Z" fill="#60CEDD"/>
</g>
</g>
<defs>
<clipPath id="clip0_307_31">
<rect width="35" height="35" fill="white"/>
</clipPath>
</defs>
</svg>
