<svg width="50" height="50" viewBox="0 0 50 50" fill="none" xmlns="http://www.w3.org/2000/svg">
<path d="M25 0C29.9445 0 34.778 1.46622 38.8893 4.21326C43.0005 6.96029 46.2048 10.8648 48.097 15.4329C49.9892 20.0011 50.4843 25.0277 49.5196 29.8773C48.555 34.7268 46.174 39.1814 42.6777 42.6777C39.1814 46.174 34.7268 48.555 29.8773 49.5196C25.0277 50.4843 20.0011 49.9892 15.4329 48.097C10.8648 46.2048 6.96029 43.0005 4.21326 38.8893C1.46622 34.778 0 29.9445 0 25C0 18.3696 2.63392 12.0107 7.32233 7.32233C12.0107 2.63392 18.3696 0 25 0Z" fill="#6FB98F"/>
<path d="M40.79 17.007H9.209C7.201 17.007 5.57001 16.523 5.57001 15.925C5.57001 15.325 7.201 14.843 9.209 14.843H40.79C42.801 14.843 44.429 15.328 44.429 15.925C44.426 16.523 42.801 17.007 40.79 17.007Z" fill="white"/>
<path d="M40.79 26.081H9.209C7.201 26.081 5.57001 25.597 5.57001 24.999C5.57001 24.399 7.201 23.917 9.209 23.917H40.79C42.801 23.917 44.429 24.402 44.429 24.999C44.426 25.597 42.801 26.081 40.79 26.081Z" fill="white"/>
<path d="M40.79 35.156H9.209C7.201 35.156 5.57001 34.672 5.57001 34.074C5.57001 33.474 7.201 32.992 9.209 32.992H40.79C42.801 32.992 44.429 33.477 44.429 34.074C44.426 34.672 42.801 35.156 40.79 35.156Z" fill="white"/>
</svg>
