<svg width="38" height="30" viewBox="0 0 38 30" fill="none" xmlns="http://www.w3.org/2000/svg">
<path d="M18.373 15.186C19.8904 14.2289 21.0492 12.7976 21.6696 11.1143C22.29 9.43099 22.3373 7.58991 21.804 5.87701C20.943 2.44201 17.519 -0.000976562 13.566 -0.000976562C9.61301 -0.000976562 6.18901 2.44201 5.32801 5.87701C4.79474 7.58991 4.84198 9.43099 5.46239 11.1143C6.0828 12.7976 7.24166 14.2289 8.75901 15.186C3.65301 17.277 0.422014 21.86 0.524014 26.862V29.984H26.609V26.862C26.709 21.862 23.478 17.278 18.373 15.186Z" fill="#6FB98F"/>
<path d="M28.967 15.19C33.028 12.54 34.167 7.71801 31.618 3.92601C30.3992 2.05381 28.4867 0.742348 26.301 0.280015C24.0269 -0.25264 21.6371 0.0460396 19.564 1.12203C20.5813 1.94057 21.4165 2.96233 22.0164 4.12203C22.6163 5.28172 22.9677 6.55381 23.048 7.85701C23.1098 9.15489 22.8971 10.4512 22.424 11.6614C21.9508 12.8715 21.2278 13.9682 20.302 14.88C24.974 17.548 27.743 22.068 27.653 26.88V30H37.517V26.878C37.63 21.872 34.274 17.278 28.967 15.189V15.19Z" fill="#2C7873"/>
</svg>
