<svg width="80" height="40" viewBox="0 0 80 40" fill="none" xmlns="http://www.w3.org/2000/svg">
<path d="M0 40V35.584C0.0340923 34.4768 0.375721 33.4009 0.986632 32.4769C1.59754 31.5528 2.45362 30.8171 3.459 30.352C6.25095 28.8929 9.37877 28.1971 12.526 28.335C13.2013 28.335 13.851 28.3487 14.475 28.376C15.0951 28.4036 15.7132 28.4637 16.327 28.556C15.8909 29.4956 15.5557 30.4788 15.327 31.489C15.1018 32.5069 14.9901 33.5465 14.994 34.589V40H0ZM20 40V34.584C19.9876 32.8496 20.4958 31.1514 21.459 29.709C22.5385 28.135 23.9456 26.8131 25.584 25.834C27.5528 24.647 29.7082 23.8018 31.959 23.334C34.6004 22.7604 37.2971 22.4807 40 22.5C42.7307 22.4775 45.4556 22.7569 48.125 23.333C50.3758 23.8007 52.5313 24.646 54.5 25.833C56.1327 26.8048 57.5279 28.1286 58.584 29.708C59.5224 31.16 60.0147 32.8552 60 34.584V40H20ZM65 40V34.584C65.0052 33.5373 64.9074 32.4926 64.708 31.465C64.5044 30.4637 64.1825 29.4903 63.749 28.565C64.3611 28.4692 64.9781 28.4074 65.597 28.38C66.219 28.3527 66.8523 28.339 67.497 28.339C70.6402 28.1982 73.7656 28.8807 76.564 30.319C77.572 30.7872 78.4284 31.5288 79.0358 32.4596C79.6432 33.3903 79.9773 34.4728 80 35.584V40H65ZM25 35H55V34.5C55 32.4447 53.5973 30.7644 50.792 29.459C47.3778 28.0362 43.6965 27.3679 40 27.5C36.3035 27.3679 32.6222 28.0362 29.208 29.459C26.4027 30.7644 25 32.4727 25 34.584V35ZM12.467 25.833C11.3135 25.8259 10.188 25.4769 9.23283 24.8302C8.27766 24.1834 7.53567 23.268 7.1007 22.1997C6.66572 21.1313 6.55728 19.9579 6.78908 18.828C7.02089 17.698 7.58253 16.6621 8.403 15.8512C9.22347 15.0404 10.2659 14.4911 11.3986 14.2727C12.5312 14.0542 13.7032 14.1765 14.7664 14.6241C15.8295 15.0717 16.7361 15.8245 17.3715 16.7872C18.0068 17.75 18.3425 18.8795 18.336 20.033C18.3457 20.7951 18.1992 21.5511 17.9054 22.2544C17.6116 22.9576 17.1769 23.5933 16.628 24.122C16.0878 24.6768 15.4396 25.1148 14.7234 25.4091C14.0071 25.7034 13.2382 25.8477 12.464 25.833H12.467ZM67.467 25.833C66.5095 25.8268 65.5682 25.5849 64.7263 25.1287C63.8844 24.6726 63.1677 24.0162 62.6396 23.2175C62.1114 22.4188 61.788 21.5023 61.6979 20.5491C61.6078 19.5958 61.7538 18.6349 62.1229 17.7514C62.4921 16.8679 63.073 16.0888 63.8146 15.483C64.5561 14.8772 65.4353 14.4632 66.3747 14.2777C67.3141 14.0921 68.2848 14.1407 69.2009 14.4191C70.1171 14.6975 70.9507 15.1972 71.628 15.874C72.1813 16.4144 72.618 17.0624 72.9112 17.778C73.2044 18.4937 73.348 19.2618 73.333 20.035C73.3427 20.7971 73.1962 21.5531 72.9024 22.2564C72.6086 22.9596 72.1739 23.5952 71.625 24.124C71.0853 24.6776 70.438 25.1149 69.7228 25.4088C69.0077 25.7027 68.24 25.8471 67.467 25.833ZM40 20C38.0222 20 36.0888 19.4135 34.4443 18.3147C32.7998 17.2159 31.5181 15.6541 30.7612 13.8269C30.0043 11.9996 29.8063 9.98892 30.1921 8.04912C30.578 6.10931 31.5304 4.32746 32.9289 2.92894C34.3275 1.53041 36.1093 0.578003 38.0491 0.192151C39.9889 -0.193701 41.9996 0.00433564 43.8268 0.761212C45.6541 1.51809 47.2159 2.79983 48.3147 4.44432C49.4135 6.08881 50 8.0222 50 10C50 12.6522 48.9464 15.1957 47.0711 17.0711C45.1957 18.9465 42.6522 20 40 20ZM40.029 15C40.6893 15.0185 41.3463 14.8996 41.9583 14.6509C42.5702 14.4021 43.1238 14.0289 43.584 13.555C44.049 13.0838 44.4141 12.5236 44.6574 11.9079C44.9007 11.2922 45.0172 10.6338 45 9.972C44.9886 8.98761 44.6885 8.02823 44.137 7.21278C43.5855 6.39733 42.8067 5.76168 41.8973 5.38466C40.9879 5.00763 39.9879 4.90581 39.0212 5.09181C38.0544 5.27781 37.1636 5.74345 36.459 6.43101C35.9839 6.88802 35.6088 7.43874 35.3577 8.04829C35.1065 8.65784 34.9847 9.31291 35 9.972C34.9908 10.6351 35.1147 11.2933 35.3644 11.9076C35.614 12.522 35.9843 13.08 36.4533 13.5488C36.9224 14.0176 37.4807 14.3875 38.0952 14.6368C38.7097 14.8861 39.3679 15.0096 40.031 15H40.029Z" fill="#2C7873"/>
</svg>
