<svg width="60" height="30" viewBox="0 0 60 30" fill="none" xmlns="http://www.w3.org/2000/svg">
<path d="M0 30V26.688C0.0255181 25.8576 0.281691 25.0507 0.739832 24.3577C1.19797 23.6646 1.83999 23.1128 2.594 22.764C4.68787 21.6696 7.03364 21.1477 9.394 21.251C9.90067 21.251 10.388 21.2613 10.856 21.282C11.321 21.3027 11.7847 21.3478 12.245 21.417C11.9179 22.1217 11.6665 22.8592 11.495 23.617C11.3261 24.3801 11.2422 25.1595 11.245 25.941V30H0ZM15 30V25.938C14.9907 24.6373 15.3717 23.3638 16.094 22.282C16.9037 21.1015 17.9592 20.1102 19.188 19.376C20.6645 18.4858 22.281 17.8518 23.969 17.501C25.9501 17.0706 27.9727 16.8606 30 16.875C32.0482 16.8582 34.0919 17.0678 36.094 17.5C37.782 17.8508 39.3985 18.4848 40.875 19.375C42.0995 20.1038 43.1459 21.0966 43.938 22.281C44.6418 23.37 45.0111 24.6414 45 25.938V30H15ZM48.75 30V25.938C48.7539 25.153 48.6806 24.3696 48.531 23.599C48.3786 22.847 48.1372 22.1159 47.812 21.421C48.2711 21.349 48.7338 21.3026 49.198 21.282C49.6647 21.2613 50.1403 21.251 50.625 21.251C52.9823 21.1454 55.3263 21.6573 57.425 22.736C58.1811 23.0876 58.8234 23.6445 59.2786 24.3431C59.7338 25.0418 59.9838 25.8543 60 26.688V30H48.75ZM18.75 26.25H41.25V25.875C41.25 24.3337 40.198 23.0733 38.094 22.094C35.5333 21.027 32.7723 20.5259 30 20.625C27.2277 20.5259 24.4667 21.027 21.906 22.094C19.802 23.0733 18.75 24.3547 18.75 25.938V26.25ZM9.35 19.375C8.18968 19.3714 7.0783 18.907 6.26036 18.084C5.44242 17.261 4.98492 16.1468 4.9885 14.9865C4.99208 13.8262 5.45645 12.7148 6.27945 11.8969C7.10246 11.0789 8.21668 10.6214 9.377 10.625C9.95364 10.625 10.5246 10.739 11.057 10.9604C11.5895 11.1818 12.0729 11.5063 12.4795 11.9152C12.886 12.3241 13.2078 12.8094 13.4262 13.3431C13.6446 13.8768 13.7553 14.4484 13.752 15.025C13.7593 15.5966 13.6494 16.1637 13.4291 16.6912C13.2088 17.2187 12.8827 17.6954 12.471 18.092C12.0658 18.508 11.5796 18.8365 11.0425 19.0572C10.5053 19.2778 9.92861 19.386 9.348 19.375H9.35ZM50.6 19.375C49.8818 19.3704 49.1757 19.1891 48.5441 18.847C47.9126 18.5049 47.3749 18.0125 46.9787 17.4134C46.5825 16.8143 46.3399 16.1269 46.2723 15.4118C46.2047 14.6967 46.3142 13.976 46.5912 13.3133C46.8681 12.6506 47.3039 12.0662 47.8602 11.6118C48.4165 11.1574 49.076 10.847 49.7807 10.7079C50.4854 10.5688 51.2135 10.6053 51.9007 10.8143C52.5878 11.0233 53.213 11.3982 53.721 11.906C54.136 12.3113 54.4636 12.7973 54.6836 13.3341C54.9036 13.8709 55.0113 14.447 55 15.027C55.0073 15.5986 54.8974 16.1656 54.6771 16.6931C54.4568 17.2206 54.1307 17.6974 53.719 18.094C53.3141 18.5091 52.8285 18.837 52.2921 19.0573C51.7557 19.2776 51.1798 19.3857 50.6 19.375ZM30 15C28.0109 15 26.1032 14.2098 24.6967 12.8033C23.2902 11.3968 22.5 9.48912 22.5 7.5C22.5 5.51088 23.2902 3.60321 24.6967 2.19669C26.1032 0.790163 28.0109 0 30 0C31.9891 0 33.8968 0.790163 35.3033 2.19669C36.7098 3.60321 37.5 5.51088 37.5 7.5C37.5 9.48912 36.7098 11.3968 35.3033 12.8033C33.8968 14.2098 31.9891 15 30 15ZM30.022 11.25C30.5172 11.2638 31.0099 11.1745 31.4688 10.9879C31.9278 10.8013 32.3429 10.5214 32.688 10.166C33.0369 9.8127 33.3109 9.39262 33.4935 8.93091C33.6762 8.4692 33.7638 7.97537 33.751 7.479C33.7621 6.98641 33.6732 6.49667 33.4898 6.03937C33.3063 5.58206 33.0321 5.16667 32.6837 4.81827C32.3353 4.46986 31.9199 4.19567 31.4626 4.01224C31.0053 3.82881 30.5156 3.73994 30.023 3.75101C29.5274 3.74018 29.0348 3.82955 28.5746 4.01376C28.1144 4.19797 27.6962 4.47321 27.345 4.823C26.9887 5.16581 26.7074 5.5789 26.5191 6.0361C26.3308 6.49331 26.2395 6.98467 26.251 7.479C26.244 7.97629 26.3368 8.46992 26.5239 8.93073C26.7109 9.39153 26.9885 9.81014 27.3402 10.1618C27.6919 10.5135 28.1105 10.7911 28.5713 10.9781C29.0321 11.1652 29.5257 11.258 30.023 11.251L30.022 11.25Z" fill="#FFD800"/>
</svg>
