<svg width="36" height="35" viewBox="0 0 36 35" fill="none" xmlns="http://www.w3.org/2000/svg">
<g clip-path="url(#clip0_314_188)">
<path d="M18 16.9251C15.525 16.9251 13.5 16.1586 11.925 14.6256C10.35 13.0926 9.5625 11.1216 9.5625 8.71256C9.5625 6.30354 10.35 4.33253 11.925 2.79952C13.5 1.26651 15.525 0.5 18 0.5C20.475 0.5 22.5 1.26651 24.075 2.79952C25.65 4.33253 26.4375 6.30354 26.4375 8.71256C26.4375 11.1216 25.65 13.0926 24.075 14.6256C22.5 16.1586 20.475 16.9251 18 16.9251ZM0 34.5V29.3535C0 27.9665 0.35625 26.7802 1.06875 25.7947C1.76628 24.8214 2.71767 24.0465 3.825 23.5499C6.3375 22.4549 8.74687 21.6337 11.0531 21.0862C13.3266 20.5425 15.6589 20.2668 18 20.2649C20.3336 20.2659 22.6579 20.551 24.9187 21.1135C27.2062 21.6793 29.6048 22.495 32.1143 23.5605C33.2881 24.0761 34.2291 24.8238 34.9375 25.8034C35.6459 26.7831 36 27.9665 36 29.3535V34.5H0ZM3.375 31.215H32.625V29.3535C32.625 28.7695 32.4469 28.2128 32.0906 27.6836C31.7344 27.1543 31.2937 26.7619 30.7687 26.5064C28.3687 25.3749 26.175 24.5993 24.1875 24.1795C22.154 23.7551 20.0797 23.544 18 23.5499C15.9018 23.5459 13.809 23.757 11.7562 24.1795C9.73125 24.5993 7.5375 25.3749 5.175 26.5064C4.63843 26.7724 4.18996 27.1804 3.88125 27.6836C3.55301 28.1821 3.37741 28.7613 3.375 29.3535V31.215ZM18 13.6401C19.4625 13.6401 20.6719 13.1747 21.6281 12.244C22.5844 11.3132 23.0625 10.1361 23.0625 8.71256C23.0625 7.28905 22.5844 6.11192 21.6281 5.18116C20.6719 4.2504 19.4625 3.78502 18 3.78502C16.5375 3.78502 15.3281 4.2504 14.3719 5.18116C13.4156 6.11192 12.9375 7.28905 12.9375 8.71256C12.9375 10.1361 13.4156 11.3132 14.3719 12.244C15.3281 13.1747 16.5375 13.6401 18 13.6401Z" fill="#FFFBF5"/>
</g>
<defs>
<clipPath id="clip0_314_188">
<rect width="36" height="34" fill="white" transform="translate(0 0.5)"/>
</clipPath>
</defs>
</svg>
