<svg width="130" height="130" viewBox="0 0 130 130" fill="none" xmlns="http://www.w3.org/2000/svg">
<mask id="mask0_268_305" style="mask-type:luminance" maskUnits="userSpaceOnUse" x="16" y="16" width="98" height="98">
<path d="M108.9 86.0997C120.553 61.8542 110.345 32.7527 86.0995 21.0997C61.854 9.4468 32.7525 19.6551 21.0995 43.9006C9.44659 68.1461 19.6549 97.2476 43.9004 108.901C68.1459 120.554 97.2474 110.345 108.9 86.0997Z" fill="white"/>
</mask>
<g mask="url(#mask0_268_305)">
<path d="M108.9 86.0997C120.553 61.8542 110.345 32.7527 86.0995 21.0997C61.854 9.4468 32.7525 19.6551 21.0995 43.9006C9.44659 68.1461 19.6549 97.2476 43.9004 108.901C68.1459 120.554 97.2474 110.345 108.9 86.0997Z" fill="#E6E6E6"/>
<path d="M65.0011 138.966C80.9673 138.966 93.9104 126.023 93.9104 110.057C93.9104 94.0904 80.9673 81.1472 65.0011 81.1472C49.0349 81.1472 36.0918 94.0904 36.0918 110.057C36.0918 126.023 49.0349 138.966 65.0011 138.966Z" fill="#FFD800"/>
<path d="M65.4755 73.9105C72.3131 73.648 77.6433 67.8921 77.3807 61.0545C77.1182 54.2169 71.3624 48.8868 64.5247 49.1494C57.6871 49.4119 52.357 55.1677 52.6196 62.0053C52.8821 68.8429 58.6379 74.1731 65.4755 73.9105Z" fill="#FFD800"/>
</g>
<path d="M92.3889 43.0916C100.673 43.0916 107.389 36.3758 107.389 28.0916C107.389 19.8073 100.673 13.0916 92.3889 13.0916C84.1046 13.0916 77.3889 19.8073 77.3889 28.0916C77.3889 36.3758 84.1046 43.0916 92.3889 43.0916Z" fill="#60CEDD"/>
<g clip-path="url(#clip0_268_305)">
<path d="M84.6193 35.8045H85.7922L97.6009 23.9957L96.4281 22.8228L84.6193 34.6316V35.8045ZM100.986 22.8495L97.5743 19.4375L98.6939 18.3179C98.996 18.0158 99.3691 17.8647 99.8134 17.8647C100.258 17.8647 100.631 18.0158 100.933 18.3179L102.106 19.4908C102.408 19.7929 102.559 20.1661 102.559 20.6104C102.559 21.0546 102.408 21.4278 102.106 21.7299L100.986 22.8495ZM99.8667 23.9691L86.4319 37.4039H83.0199V33.9919L96.4547 20.557L99.8667 23.9691ZM97.0145 23.4093L96.4281 22.8228L97.6009 23.9957L97.0145 23.4093Z" fill="white"/>
</g>
<defs>
<clipPath id="clip0_268_305">
<rect width="19.5391" height="19.5391" fill="white" transform="translate(83.0199 17.8647)"/>
</clipPath>
</defs>
</svg>
