<svg width="50" height="50" viewBox="0 0 50 50" fill="none" xmlns="http://www.w3.org/2000/svg">
<g clip-path="url(#clip0_141_212)">
<path d="M25 50C38.8071 50 50 38.8071 50 25C50 11.1929 38.8071 0 25 0C11.1929 0 0 11.1929 0 25C0 38.8071 11.1929 50 25 50Z" fill="#FFD800"/>
<path d="M40.6181 41L29.367 29.359C28.4914 30.1414 27.4764 30.752 26.375 31.159C24.0078 32.0499 21.4039 32.0868 19.0124 31.2633C16.621 30.4398 14.5918 28.8075 13.275 26.648C11.9095 24.4584 11.3042 21.8796 11.5529 19.3111C11.8017 16.7426 12.8907 14.3278 14.6511 12.441C16.3708 10.5946 18.6837 9.4098 21.187 9.09296C23.6903 8.77612 26.2255 9.34728 28.351 10.707C30.5053 12.117 32.1305 14.2022 32.9717 16.6355C33.8129 19.0689 33.8225 21.7126 32.9991 24.152C32.5886 25.3508 31.9802 26.4723 31.199 27.47L42.492 39.059L40.6181 41ZM22.694 29.143C23.8027 29.1584 24.9021 28.9394 25.9203 28.5003C26.9384 28.0612 27.8523 27.4119 28.602 26.595C30.1646 24.9374 31.0349 22.7455 31.0349 20.4675C31.0349 18.1895 30.1646 15.9976 28.602 14.34C27.8523 13.5231 26.9384 12.8739 25.9203 12.4348C24.9021 11.9957 23.8027 11.7766 22.694 11.792C20.4451 11.8684 18.3137 12.8155 16.7497 14.4335C15.1858 16.0514 14.3116 18.2137 14.3116 20.464C14.3116 22.7143 15.1858 24.8766 16.7497 26.4946C18.3137 28.1125 20.4451 29.0596 22.694 29.136V29.143Z" fill="white"/>
</g>
<defs>
<clipPath id="clip0_141_212">
<rect width="50" height="50" fill="white"/>
</clipPath>
</defs>
</svg>
