<svg width="36" height="36" viewBox="0 0 36 36" fill="none" xmlns="http://www.w3.org/2000/svg">
<path d="M33.0874 35.972L20.3024 23.187C19.3001 24.0473 18.1474 24.7148 16.9024 25.156C14.2272 26.142 11.2961 26.1885 8.59101 25.2877C5.88591 24.3868 3.56782 22.5924 2.01787 20.1993C0.467923 17.8063 -0.221631 14.9571 0.0625657 12.1201C0.346763 9.28317 1.5878 6.62735 3.58164 4.58931C5.57548 2.55126 8.20346 1.2523 11.0335 0.905975C13.8635 0.55965 16.7272 1.18657 19.1536 2.68368C21.5801 4.1808 23.4249 6.45899 24.3848 9.14369C25.3447 11.8284 25.3626 14.7598 24.4354 17.456C23.967 18.7786 23.2764 20.0116 22.3934 21.102L35.2264 33.833L33.0874 35.972ZM12.7194 22.944C13.971 22.9647 15.2134 22.7266 16.3687 22.2448C17.524 21.763 18.5674 21.0478 19.4334 20.144C21.2047 18.3509 22.198 15.932 22.198 13.4115C22.198 10.891 21.2047 8.47211 19.4334 6.679C18.5674 5.7752 17.524 5.06 16.3687 4.57819C15.2134 4.09637 13.971 3.85833 12.7194 3.879C10.1924 3.879 7.76896 4.88285 5.98211 6.66969C4.19527 8.45654 3.19143 10.88 3.19143 13.407C3.19143 15.934 4.19527 18.3575 5.98211 20.1443C7.76896 21.9312 10.1924 22.935 12.7194 22.935V22.944Z" fill="#C6C6C6"/>
</svg>
