<svg width="24" height="40" viewBox="0 0 24 40" fill="none" xmlns="http://www.w3.org/2000/svg">
<path d="M19 35.45H3C2.20508 35.4476 1.4434 35.1308 0.881302 34.5687C0.319207 34.0066 0.00237409 33.2449 0 32.45V9.39999H3V32.45H19V35.45ZM9.89999 8.1C8.97347 8.09123 8.07855 7.76201 7.3672 7.1683C6.65585 6.57458 6.17195 5.75295 5.99763 4.84294C5.82332 3.93292 5.96937 2.99063 6.41096 2.17607C6.85256 1.36151 7.56249 0.724905 8.42018 0.374369C9.27788 0.0238327 10.2305 -0.0190343 11.1162 0.253061C12.0019 0.525157 12.7661 1.09543 13.2791 1.86704C13.792 2.63866 14.0221 3.56404 13.9302 4.48603C13.8383 5.40803 13.4302 6.2698 12.775 6.925C12.4015 7.30685 11.9536 7.60812 11.4592 7.81021C10.9647 8.01229 10.4341 8.11092 9.89999 8.1ZM21 40V30.45H8.75C8.25804 30.4574 7.76969 30.3649 7.31453 30.178C6.85937 29.9912 6.44688 29.7139 6.10201 29.363C5.74844 29.0268 5.46821 28.6211 5.27892 28.1715C5.08962 27.7218 4.99533 27.2378 5.002 26.75V15.35C4.98923 14.7094 5.10865 14.073 5.3528 13.4807C5.59694 12.8883 5.96058 12.3526 6.42101 11.907C7.35362 11.004 8.60087 10.4991 9.899 10.4991C11.1971 10.4991 12.4444 11.004 13.377 11.907C13.839 12.3517 14.2041 12.8871 14.4493 13.4796C14.6945 14.0721 14.8146 14.7089 14.802 15.35V25.45H20.252C20.744 25.4426 21.2323 25.5351 21.6875 25.7219C22.1426 25.9088 22.5551 26.1861 22.9 26.537C23.2536 26.8732 23.5338 27.2789 23.7231 27.7285C23.9124 28.1782 24.0067 28.6621 24 29.15V40H21Z" fill="#FFD800"/>
</svg>
