<svg width="30" height="35" viewBox="0 0 30 35" fill="none" xmlns="http://www.w3.org/2000/svg">
<path d="M28.016 20.996L26.316 19.99C26.728 18.2473 26.728 16.4326 26.316 14.69L28.016 13.685C28.8178 13.2004 29.3991 12.4222 29.6365 11.5159C29.8738 10.6096 29.7484 9.64639 29.287 8.83099C29.0655 8.4292 28.7657 8.07588 28.4053 7.79199C28.0449 7.5081 27.6312 7.2994 27.1887 7.17819C26.7462 7.05699 26.2839 7.02574 25.8291 7.08633C25.3743 7.14693 24.9363 7.29813 24.541 7.53098L22.824 8.54398C21.5485 7.34563 20.0198 6.44953 18.351 5.922V3.87399C18.3588 3.41276 18.2747 2.95455 18.1036 2.52615C17.9325 2.09775 17.6779 1.70773 17.3545 1.37878C17.031 1.04984 16.6454 0.788569 16.2199 0.610229C15.7945 0.43189 15.3378 0.340027 14.8765 0.340027C14.4152 0.340027 13.9585 0.43189 13.5331 0.610229C13.1076 0.788569 12.722 1.04984 12.3985 1.37878C12.0751 1.70773 11.8205 2.09775 11.6494 2.52615C11.4783 2.95455 11.3942 3.41276 11.402 3.87399V5.922C9.73357 6.44892 8.20536 7.34511 6.93099 8.54398L5.212 7.53098C4.81664 7.29827 4.37866 7.14719 3.92391 7.08667C3.46916 7.02614 3.0069 7.05739 2.56444 7.17859C2.12199 7.29978 1.70832 7.50848 1.34789 7.7923C0.987463 8.07611 0.687577 8.4293 0.465993 8.83099C0.00456575 9.64639 -0.120787 10.6096 0.116536 11.5159C0.35386 12.4222 0.935158 13.2004 1.73699 13.685L3.437 14.69C3.02497 16.4326 3.02497 18.2473 3.437 19.99L1.73699 20.996C0.935158 21.4806 0.35386 22.2587 0.116536 23.1651C-0.120787 24.0714 0.00456575 25.0346 0.465993 25.85C0.687476 26.2518 0.987292 26.6051 1.34771 26.889C1.70812 27.1729 2.12182 27.3816 2.56432 27.5028C3.00682 27.624 3.46913 27.6552 3.92391 27.5946C4.37869 27.534 4.81668 27.3828 5.212 27.15L6.93099 26.137C8.20478 27.3359 9.73325 28.2313 11.402 28.756V30.807C11.3942 31.2682 11.4783 31.7264 11.6494 32.1548C11.8205 32.5832 12.0751 32.9732 12.3985 33.3022C12.722 33.6311 13.1076 33.8924 13.5331 34.0707C13.9585 34.2491 14.4152 34.3409 14.8765 34.3409C15.3378 34.3409 15.7945 34.2491 16.2199 34.0707C16.6454 33.8924 17.031 33.6311 17.3545 33.3022C17.6779 32.9732 17.9325 32.5832 18.1036 32.1548C18.2747 31.7264 18.3588 31.2682 18.351 30.807V28.756C20.02 28.2306 21.549 27.3353 22.824 26.137L24.541 27.15C24.9363 27.3828 25.3743 27.534 25.8291 27.5946C26.2839 27.6552 26.7462 27.624 27.1887 27.5028C27.6312 27.3816 28.0449 27.1729 28.4053 26.889C28.7657 26.6051 29.0655 26.2518 29.287 25.85C29.7484 25.0346 29.8738 24.0714 29.6365 23.1651C29.3991 22.2587 28.8178 21.4806 28.016 20.996ZM14.877 23.836C13.5855 23.8654 12.3146 23.5093 11.2264 22.8132C10.1382 22.1171 9.28203 21.1125 8.76729 19.9277C8.25255 18.7429 8.10254 17.4315 8.33638 16.1611C8.57022 14.8906 9.17732 13.7186 10.0802 12.7947C10.9831 11.8708 12.1407 11.2369 13.4055 10.9738C14.6702 10.7108 15.9847 10.8306 17.1811 11.3179C18.3774 11.8052 19.4014 12.638 20.1224 13.7099C20.8434 14.7818 21.2287 16.0442 21.229 17.336C21.2388 18.1799 21.0822 19.0174 20.7683 19.8008C20.4543 20.5842 19.9892 21.298 19.3993 21.9016C18.8095 22.5052 18.1065 22.9867 17.3306 23.3186C16.5546 23.6505 15.7209 23.8263 14.877 23.836Z" fill="white"/>
</svg>
