<svg xmlns="http://www.w3.org/2000/svg" width="30" height="30" viewBox="0 0 30 30">
  <g id="Group_69" transform="translate(-527.675 -265.668)">
    <path id="Path_68" d="M536.19,285.446c5.895,1.128,13.429,5.855,20.353-10.486a15,15,0,0,0-28.868,5.719,14.849,14.849,0,0,0,1.121,5.638A12.7,12.7,0,0,1,536.19,285.446Zm8.517-9.535a4.045,4.045,0,1,1-4.044,4.045A4.046,4.046,0,0,1,544.707,275.91Z" transform="translate(0 0)" fill="#2e3191"/>
    <path id="Path_69" d="M536.255,285.049a6.723,6.723,0,0,0-6.645.421c.18.184.349.375.538.551a15,15,0,0,0,25.216-10.951,15.044,15.044,0,0,0-.762-4.707C551.163,284.779,542.242,287.494,536.255,285.049Z" transform="translate(2.312 5.609)" fill="#2e3191"/>
  </g>
</svg>
