<svg width="35" height="35" viewBox="0 0 35 35" fill="none" xmlns="http://www.w3.org/2000/svg">
<path d="M33.272 18.1019L22.572 9.62297C22.4064 9.92743 22.1761 10.1919 21.8974 10.3979C21.6187 10.6039 21.2982 10.7463 20.9585 10.8152C20.6189 10.8841 20.2682 10.8778 19.9313 10.7967C19.5943 10.7157 19.2792 10.5618 19.008 10.346C18.4393 9.85635 18.0632 9.18042 17.9471 8.43901C17.8309 7.6976 17.9822 6.93905 18.374 6.29897L11.274 0.671951C11.0941 0.528393 10.8849 0.425999 10.6612 0.371933C10.4375 0.317867 10.2046 0.313434 9.97903 0.358994C9.75343 0.404554 9.54054 0.498989 9.35533 0.635636C9.17012 0.772282 9.01709 0.947827 8.907 1.14995L1.07699 13.8949C0.816971 14.3203 0.716744 14.8243 0.794241 15.3167C0.871738 15.8092 1.12191 16.258 1.5 16.583L8.6 22.2099C8.7653 21.9055 8.99534 21.6411 9.27392 21.4352C9.55251 21.2294 9.87285 21.0871 10.2124 21.0184C10.5519 20.9498 10.9023 20.9564 11.239 21.0379C11.5757 21.1194 11.8904 21.2737 12.161 21.4899C12.7297 21.9795 13.1059 22.6552 13.2226 23.3965C13.3393 24.1378 13.1888 24.8963 12.798 25.5369L23.498 34.013C23.678 34.1562 23.8872 34.2583 24.1109 34.3122C24.3345 34.3661 24.5672 34.3704 24.7927 34.3248C25.0182 34.2793 25.2311 34.185 25.4163 34.0485C25.6015 33.9121 25.7546 33.7368 25.865 33.535L33.695 20.7869C33.9542 20.3619 34.054 19.8586 33.9765 19.3668C33.899 18.875 33.6493 18.4267 33.272 18.1019Z" fill="white"/>
</svg>
