<svg width="36" height="35" viewBox="0 0 36 35" fill="none" xmlns="http://www.w3.org/2000/svg">
<path d="M35.2091 18.1483L23.6184 9.67636C23.439 9.98056 23.1896 10.2448 22.8876 10.4506C22.5857 10.6564 22.2385 10.7987 21.8706 10.8676C21.5027 10.9364 21.1228 10.9301 20.7578 10.8491C20.3928 10.7681 20.0514 10.6144 19.7577 10.3987C19.1416 9.90954 18.7342 9.23417 18.6084 8.49338C18.4826 7.75258 18.6465 6.99466 19.0709 6.35511L11.3798 0.732762C11.185 0.589323 10.9584 0.487014 10.716 0.432993C10.4737 0.378972 10.2215 0.374542 9.97707 0.420064C9.73269 0.465586 9.50207 0.559943 9.30145 0.696476C9.10082 0.833009 8.93505 1.00841 8.81579 1.21036L0.333951 13.9448C0.0522817 14.3698 -0.0562895 14.8733 0.0276592 15.3654C0.111608 15.8574 0.382605 16.3059 0.79217 16.6306L8.48323 22.2529C8.6623 21.9487 8.91149 21.6845 9.21327 21.4788C9.51504 21.2731 9.86205 21.131 10.2298 21.0624C10.5976 20.9938 10.9772 21.0004 11.342 21.0818C11.7067 21.1632 12.0476 21.3174 12.3407 21.5335C12.9567 22.0226 13.3643 22.6978 13.4907 23.4385C13.6171 24.1791 13.4541 24.9371 13.0307 25.5771L24.6215 34.0461C24.8165 34.1892 25.0431 34.2913 25.2854 34.3451C25.5276 34.3989 25.7797 34.4032 26.024 34.3577C26.2683 34.3122 26.4988 34.218 26.6994 34.0817C26.9001 33.9453 27.066 33.7702 27.1855 33.5685L35.6674 20.8311C35.9481 20.4064 36.0562 19.9035 35.9723 19.4121C35.8884 18.9207 35.6179 18.4728 35.2091 18.1483Z" fill="white"/>
</svg>
