<svg width="44" height="35" viewBox="0 0 44 35" fill="none" xmlns="http://www.w3.org/2000/svg">
<path d="M2.586 3.10896C3.31516 3.27179 3.96993 3.67134 4.44821 4.24531C4.92649 4.81928 5.20137 5.53539 5.22999 6.28196L5.596 10.169L17.336 12.669L13.848 2.06097C13.7826 1.82785 13.7746 1.58235 13.8247 1.34547C13.8748 1.10858 13.9814 0.887342 14.1356 0.700648C14.2898 0.513953 14.4869 0.367352 14.71 0.273371C14.9331 0.179391 15.1757 0.140821 15.417 0.16096L16.917 0.47996C18.0592 0.720271 19.1285 1.22705 20.0377 1.95901C20.9469 2.69097 21.6703 3.62739 22.149 4.69197L26.857 14.686L35.857 16.604C36.8385 16.8112 37.7446 17.2829 38.4773 17.968C39.21 18.6531 39.7414 19.5256 40.014 20.4909L40.555 22.201C40.6176 22.4369 40.6226 22.6843 40.5695 22.9226C40.5164 23.1608 40.4068 23.3827 40.2499 23.5697C40.093 23.7567 39.8935 23.9032 39.6681 23.9968C39.4428 24.0905 39.1982 24.1286 38.955 24.108L3.112 16.471C1.301 15.857 0.254997 14.335 0.582997 12.79L1.03999 4.46096C1.04785 4.26899 1.09469 4.08062 1.17767 3.90733C1.26065 3.73404 1.37803 3.57945 1.52266 3.45297C1.66729 3.32649 1.83615 3.23077 2.01896 3.17163C2.20176 3.11249 2.39469 3.09116 2.586 3.10896Z" fill="#2C7873"/>
<path d="M42.391 34.993H2.25802C1.89927 35.0285 1.54076 34.9232 1.25823 34.6993C0.975709 34.4753 0.791314 34.1503 0.744019 33.793C0.790594 33.4352 0.974799 33.1098 1.2575 32.8857C1.5402 32.6616 1.89912 32.5566 2.25802 32.593H42.391C42.7499 32.5566 43.1088 32.6616 43.3915 32.8857C43.6742 33.1098 43.8584 33.4352 43.905 33.793C43.8584 34.1507 43.6742 34.4761 43.3915 34.7002C43.1088 34.9243 42.7499 35.0293 42.391 34.993Z" fill="#2C7873"/>
</svg>
