<svg width="52" height="61" viewBox="0 0 52 61" fill="none" xmlns="http://www.w3.org/2000/svg">
<path d="M0.999984 43.632V13.632C0.953333 11.6482 1.46772 9.69143 2.48398 7.98701C3.60454 6.26664 5.18887 4.89829 7.05398 4.04C9.52848 2.88867 12.1624 2.11701 14.867 1.75101C18.553 1.2131 22.2751 0.962007 26 1.00001C29.8272 0.957695 33.6524 1.19533 37.445 1.711C40.1263 2.04467 42.7371 2.80423 45.179 3.961C46.993 4.81588 48.5246 6.17191 49.593 7.86901C50.5761 9.62679 51.0625 11.6189 51 13.632V43.632C51.0327 45.0874 50.7691 46.5343 50.2252 47.8846C49.6813 49.235 48.8684 50.4606 47.836 51.487C46.8302 52.5265 45.6208 53.3472 44.2833 53.8979C42.9458 54.4485 41.5091 54.7171 40.063 54.687L44.751 59.424V61H39.282L33.032 54.684H18.969L12.719 61H7.24998V59.421L11.938 54.684C10.4919 54.7141 9.05516 54.4455 7.71767 53.8949C6.38017 53.3442 5.17072 52.5235 4.16498 51.484C3.13277 50.458 2.31993 49.2329 1.77585 47.8831C1.23176 46.5333 0.967796 45.087 0.999984 43.632ZM26 5.73701C19.75 5.73701 15.2446 6.145 12.484 6.961C10.1901 7.49174 8.11635 8.71878 6.54698 10.474H45.688C44.7507 9.05267 42.7583 7.908 39.711 7.04C36.6637 6.172 32.0933 5.73767 26 5.73701ZM5.68799 27.448H23.969V15.211H5.68799V27.448ZM28.657 27.448H46.313V15.211H28.656L28.657 27.448ZM14.673 45.606C15.2404 45.6165 15.8039 45.5097 16.3282 45.2924C16.8525 45.0751 17.3263 44.7519 17.72 44.343C18.5216 43.5185 18.97 42.4139 18.97 41.264C18.97 40.1141 18.5216 39.0095 17.72 38.185C17.3201 37.7845 16.8451 37.4668 16.3222 37.25C15.7994 37.0332 15.239 36.9216 14.673 36.9216C14.107 36.9216 13.5465 37.0332 13.0237 37.25C12.5009 37.4668 12.0259 37.7845 11.626 38.185C10.8244 39.0095 10.3759 40.1141 10.3759 41.264C10.3759 42.4139 10.8244 43.5185 11.626 44.343C12.0196 44.7516 12.4933 45.0745 13.0174 45.2916C13.5415 45.5088 14.1048 45.6155 14.672 45.605L14.673 45.606ZM37.329 45.606C37.8964 45.6165 38.46 45.5097 38.9843 45.2924C39.5085 45.0751 39.9824 44.7519 40.376 44.343C41.1776 43.5185 41.626 42.4139 41.626 41.264C41.626 40.1141 41.1776 39.0095 40.376 38.185C39.9761 37.7845 39.5011 37.4668 38.9783 37.25C38.4554 37.0332 37.895 36.9216 37.329 36.9216C36.763 36.9216 36.2026 37.0332 35.6797 37.25C35.1569 37.4668 34.6819 37.7845 34.282 38.185C33.4804 39.0095 33.032 40.1141 33.032 41.264C33.032 42.4139 33.4804 43.5185 34.282 44.343C34.6756 44.7516 35.1493 45.0745 35.6734 45.2916C36.1975 45.5088 36.7608 45.6155 37.328 45.605L37.329 45.606ZM11.938 50.343H40.063C40.9042 50.3579 41.7385 50.1889 42.5076 49.848C43.2767 49.507 43.9621 49.0023 44.516 48.369C45.7046 47.0813 46.3495 45.3841 46.316 43.632V32.184H5.68799V43.631C5.65442 45.3831 6.29936 47.0803 7.48799 48.368C8.04152 49.0009 8.72645 49.5054 9.49502 49.8463C10.2636 50.1873 11.0973 50.3564 11.938 50.342V50.343Z" fill="#FFD800"/>
</svg>
