<svg width="35" height="36" viewBox="0 0 35 36" fill="none" xmlns="http://www.w3.org/2000/svg">
<g clip-path="url(#clip0_314_620)">
<path d="M34.783 34.4741L29.773 28.5111C30.7844 28.3644 31.7154 27.8766 32.4116 27.1285C33.1079 26.3804 33.5278 25.4169 33.6017 24.3976C33.6755 23.3782 33.3989 22.3643 32.8178 21.5236C32.2366 20.683 31.3857 20.066 30.406 19.7751V12.6691C30.3464 9.28527 28.9604 6.0602 26.5464 3.68828C24.1323 1.31635 20.8833 -0.0126953 17.499 -0.0126953C14.1147 -0.0126953 10.8657 1.31635 8.45163 3.68828C6.03758 6.0602 4.65155 9.28527 4.59198 12.6691V19.7771C3.61228 20.068 2.76138 20.685 2.1802 21.5256C1.59903 22.3663 1.32247 23.3802 1.39633 24.3996C1.47019 25.4189 1.89004 26.3824 2.58633 27.1305C3.28262 27.8786 4.21356 28.3664 5.22497 28.5131L0.214993 34.4761C0.13589 34.5701 0.0763718 34.6789 0.0399743 34.7962C0.00357668 34.9136 -0.00897244 35.037 0.00304798 35.1593C0.0150684 35.2815 0.0514298 35.4001 0.109982 35.5081C0.168533 35.6161 0.248097 35.7113 0.34399 35.7881C0.539601 35.9457 0.788998 36.0207 1.03909 35.9972C1.28918 35.9736 1.5202 35.8534 1.68298 35.6621L7.62597 28.5891H8.962L4.01699 34.4761C3.93789 34.5701 3.87837 34.6789 3.84198 34.7962C3.80558 34.9136 3.79303 35.037 3.80505 35.1593C3.81707 35.2815 3.85343 35.4001 3.91198 35.5081C3.97054 35.6161 4.0501 35.7113 4.14599 35.7881C4.34144 35.9456 4.59068 36.0206 4.8406 35.9971C5.09053 35.9735 5.32137 35.8533 5.48397 35.6621L11.427 28.5891H23.572L29.515 35.6621C29.6778 35.8534 29.9088 35.9736 30.1589 35.9972C30.409 36.0207 30.6584 35.9457 30.854 35.7881C30.9498 35.7112 31.0293 35.616 31.0877 35.508C31.1462 35.3999 31.1825 35.2813 31.1944 35.159C31.2064 35.0368 31.1937 34.9134 31.1572 34.7961C31.1207 34.6788 31.0611 34.57 30.982 34.4761L26.037 28.5891H27.373L33.316 35.6621C33.4788 35.8534 33.7098 35.9736 33.9599 35.9972C34.21 36.0207 34.4594 35.9457 34.655 35.7881C34.751 35.7111 34.8306 35.6157 34.8892 35.5075C34.9478 35.3993 34.9841 35.2805 34.996 35.1581C35.0079 35.0356 34.9952 34.912 34.9586 34.7945C34.9221 34.6771 34.8623 34.5681 34.783 34.4741ZM7.12597 12.6691C7.17224 9.9484 8.28551 7.35481 10.2259 5.44715C12.1663 3.5395 14.7784 2.4705 17.4995 2.4705C20.2205 2.4705 22.8327 3.5395 24.7731 5.44715C26.7135 7.35481 27.8267 9.9484 27.873 12.6691V19.5401H7.12597V12.6691ZM3.91897 24.0691C3.92478 23.5236 4.14672 23.0027 4.5361 22.6206C4.92547 22.2386 5.45051 22.0265 5.996 22.0311H29.002C29.275 22.0225 29.5469 22.0689 29.8017 22.1675C30.0564 22.2661 30.2887 22.4148 30.4849 22.6049C30.681 22.795 30.8369 23.0225 30.9434 23.2741C31.0499 23.5256 31.1048 23.7959 31.1048 24.0691C31.1048 24.3422 31.0499 24.6126 30.9434 24.8641C30.8369 25.1156 30.681 25.3432 30.4849 25.5333C30.2887 25.7234 30.0564 25.8721 29.8017 25.9707C29.5469 26.0692 29.275 26.1156 29.002 26.1071H5.99697C5.72637 26.1093 5.45797 26.0582 5.20712 25.9567C4.95626 25.8552 4.72788 25.7052 4.535 25.5154C4.34212 25.3256 4.18853 25.0996 4.083 24.8504C3.97748 24.6012 3.92207 24.3337 3.91998 24.0631L3.91897 24.0691Z" fill="#FFD800"/>
<path d="M21.682 6.2951H13.318C12.1904 6.28578 11.1052 6.7243 10.3007 7.51439C9.49619 8.30448 9.03807 9.38154 9.02698 10.5091V13.9911C9.02935 14.2408 9.13077 14.4793 9.3089 14.6542C9.48703 14.8292 9.72732 14.9262 9.97699 14.9241H25.027C25.2766 14.9262 25.5169 14.8292 25.6951 14.6542C25.8732 14.4793 25.9746 14.2408 25.977 13.9911V10.5091C25.9659 9.38085 25.5072 8.30316 24.7018 7.51296C23.8965 6.72276 22.8103 6.28471 21.682 6.2951ZM10.927 10.5091C10.9336 9.88131 11.1889 9.28177 11.637 8.84197C12.085 8.40217 12.6892 8.15803 13.317 8.1631H16.549V13.0631H10.927V10.5091ZM24.072 13.0591H18.45V8.1591H21.682C22.3098 8.15404 22.914 8.39818 23.362 8.83797C23.81 9.27777 24.0654 9.87731 24.072 10.5051V13.0591Z" fill="#FFD800"/>
<path d="M7.653 22.8591H9.603C9.92126 22.8591 10.2265 22.9856 10.4515 23.2106C10.6766 23.4356 10.803 23.7409 10.803 24.0591C10.803 24.2167 10.772 24.3728 10.7117 24.5184C10.6514 24.6639 10.563 24.7962 10.4515 24.9077C10.3401 25.0191 10.2078 25.1075 10.0622 25.1678C9.91663 25.2281 9.76059 25.2591 9.603 25.2591H7.653C7.33474 25.2591 7.02952 25.1327 6.80447 24.9077C6.57943 24.6826 6.453 24.3774 6.453 24.0591C6.453 23.7409 6.57943 23.4356 6.80447 23.2106C7.02952 22.9856 7.33474 22.8591 7.653 22.8591Z" fill="#FFD800"/>
<path d="M25.391 22.8591H27.341C27.6593 22.8591 27.9645 22.9856 28.1895 23.2106C28.4146 23.4356 28.541 23.7409 28.541 24.0591C28.541 24.2167 28.51 24.3728 28.4497 24.5184C28.3894 24.6639 28.301 24.7962 28.1895 24.9077C28.0781 25.0191 27.9458 25.1075 27.8002 25.1678C27.6546 25.2281 27.4986 25.2591 27.341 25.2591H25.391C25.0727 25.2591 24.7675 25.1327 24.5425 24.9077C24.3174 24.6826 24.191 24.3774 24.191 24.0591C24.191 23.7409 24.3174 23.4356 24.5425 23.2106C24.7675 22.9856 25.0727 22.8591 25.391 22.8591Z" fill="#FFD800"/>
</g>
<defs>
<clipPath id="clip0_314_620">
<rect width="35" height="36" fill="white"/>
</clipPath>
</defs>
</svg>
