<svg width="36" height="35" viewBox="0 0 36 35" fill="none" xmlns="http://www.w3.org/2000/svg">
<path d="M5.20661 34.3889C3.76033 34.3889 2.53099 33.9551 1.51859 33.0874C0.506198 32.2196 0 31.166 0 29.9264V24.6139H6.29752V0.388916L9.26281 2.93892L12.2281 0.388916L15.1934 2.93892L18.1587 0.388916L21.124 2.93892L24.0992 0.388916L27.0744 2.93892L30.0496 0.388916L33.0248 2.93892L36 0.388916V29.9264C36 31.166 35.4938 32.2196 34.4814 33.0874C33.469 33.9551 32.2397 34.3889 30.7934 34.3889H5.20661ZM30.7934 31.8389C31.4545 31.8389 31.9917 31.6618 32.405 31.3077C32.8182 30.9535 33.0248 30.4931 33.0248 29.9264V4.63892H9.27273V24.6139H28.562V29.9264C28.562 30.4931 28.7686 30.9535 29.1818 31.3077C29.595 31.6618 30.1322 31.8389 30.7934 31.8389ZM11.9008 11.3539V8.80392H23.8017V11.3539H11.9008ZM11.9008 17.0489V14.4989H23.8017V17.0489H11.9008ZM28.4132 11.3539C28.0165 11.3539 27.6694 11.2264 27.3719 10.9714C27.0744 10.7164 26.9256 10.4189 26.9256 10.0789C26.9256 9.73892 27.0744 9.44142 27.3719 9.18642C27.6694 8.93142 28.0165 8.80392 28.4132 8.80392C28.8099 8.80392 29.157 8.93142 29.4545 9.18642C29.7521 9.44142 29.9008 9.73892 29.9008 10.0789C29.9008 10.4189 29.7521 10.7164 29.4545 10.9714C29.157 11.2264 28.8099 11.3539 28.4132 11.3539ZM28.4132 16.8364C28.0165 16.8364 27.6694 16.7089 27.3719 16.4539C27.0744 16.1989 26.9256 15.9014 26.9256 15.5614C26.9256 15.2214 27.0744 14.9239 27.3719 14.6689C27.6694 14.4139 28.0165 14.2864 28.4132 14.2864C28.8099 14.2864 29.157 14.4139 29.4545 14.6689C29.7521 14.9239 29.9008 15.2214 29.9008 15.5614C29.9008 15.9014 29.7521 16.1989 29.4545 16.4539C29.157 16.7089 28.8099 16.8364 28.4132 16.8364ZM5.15702 31.8389H25.5868V27.1639H2.97521V29.9264C2.97521 30.4931 3.1843 30.9535 3.60248 31.3077C4.02066 31.6618 4.53884 31.8389 5.15702 31.8389Z" fill="white"/>
</svg>
