<svg width="40" height="40" viewBox="0 0 40 40" fill="none" xmlns="http://www.w3.org/2000/svg">
<g clip-path="url(#clip0_268_133)">
<path d="M20 40C31.0457 40 40 31.0457 40 20C40 8.9543 31.0457 0 20 0C8.9543 0 0 8.9543 0 20C0 31.0457 8.9543 40 20 40Z" fill="#00AFF0"/>
<path d="M32.62 13.1844C31.7215 13.5826 30.7684 13.8439 29.7925 13.9594C30.8203 13.3441 31.5897 12.3764 31.9575 11.2363C30.9915 11.8096 29.9346 12.2136 28.8325 12.4306C28.0906 11.6408 27.109 11.1177 26.0398 10.9422C24.9705 10.7668 23.8732 10.9488 22.9178 11.4602C21.9625 11.9715 21.2024 12.7836 20.7554 13.7707C20.3083 14.7577 20.1992 15.8647 20.445 16.92C18.4879 16.8221 16.5732 16.3136 14.8254 15.4275C13.0776 14.5414 11.5358 13.2976 10.3 11.7769C9.6708 12.8607 9.47809 14.1434 9.76103 15.3642C10.044 16.585 10.7813 17.6522 11.8231 18.3487C11.0416 18.3244 10.2774 18.1131 9.59435 17.7325C9.59435 17.7531 9.59435 17.7744 9.59435 17.795C9.5947 18.9314 9.988 20.0326 10.7076 20.9121C11.4271 21.7916 12.4287 22.3952 13.5425 22.6206C12.8178 22.818 12.0576 22.847 11.32 22.7056C11.6345 23.6834 12.2467 24.5385 13.071 25.1512C13.8953 25.764 14.8905 26.1038 15.9175 26.1231C13.8531 27.7379 11.2338 28.4706 8.63123 28.1613C10.8808 29.6088 13.4999 30.3774 16.175 30.375C25.2287 30.375 30.1793 22.875 30.1793 16.3706C30.1793 16.1575 30.1743 15.945 30.165 15.7344C31.1285 15.0376 31.9603 14.1748 32.6212 13.1863L32.62 13.1844Z" fill="white"/>
</g>
<defs>
<clipPath id="clip0_268_133">
<rect width="40" height="40" fill="white"/>
</clipPath>
</defs>
</svg>
