<svg width="21" height="21" viewBox="0 0 21 21" fill="none" xmlns="http://www.w3.org/2000/svg">
<path d="M14.508 0.748047H6.508C3.19429 0.748047 0.507996 3.43434 0.507996 6.74805V14.748C0.507996 18.0618 3.19429 20.748 6.508 20.748H14.508C17.8217 20.748 20.508 18.0618 20.508 14.748V6.74805C20.508 3.43434 17.8217 0.748047 14.508 0.748047Z" fill="white"/>
<path d="M14.508 1.24805H6.508C3.47043 1.24805 1.008 3.71048 1.008 6.74805V14.748C1.008 17.7856 3.47043 20.248 6.508 20.248H14.508C17.5456 20.248 20.008 17.7856 20.008 14.748V6.74805C20.008 3.71048 17.5456 1.24805 14.508 1.24805Z" stroke="#878787" stroke-linecap="round" stroke-linejoin="bevel"/>
</svg>
