<svg width="28" height="18" viewBox="0 0 28 18" fill="none" xmlns="http://www.w3.org/2000/svg">
<g clip-path="url(#clip0_268_349)">
<path d="M14.0038 14.1C15.5073 14.1 16.7841 13.6038 17.8341 12.6115C18.8841 11.6191 19.4091 10.4141 19.4091 8.99646C19.4091 7.57882 18.8828 6.375 17.8303 5.385C16.7778 4.395 15.4998 3.9 13.9962 3.9C12.4927 3.9 11.2159 4.39618 10.1659 5.38854C9.11591 6.3809 8.59091 7.5859 8.59091 9.00354C8.59091 10.4212 9.11716 11.625 10.1697 12.615C11.2222 13.605 12.5002 14.1 14.0038 14.1ZM13.9925 12.36C13.0005 12.36 12.1598 12.0326 11.4705 11.3779C10.7811 10.7233 10.4364 9.92825 10.4364 8.99295C10.4364 8.05765 10.7836 7.265 11.4779 6.615C12.1723 5.965 13.0155 5.64 14.0075 5.64C14.9995 5.64 15.8402 5.96735 16.5295 6.62205C17.2189 7.27675 17.5636 8.07175 17.5636 9.00705C17.5636 9.94235 17.2164 10.735 16.5221 11.385C15.8277 12.035 14.9845 12.36 13.9925 12.36ZM14 18C10.903 18 8.10303 17.17 5.6 15.51C3.09697 13.85 1.2303 11.68 0 9C1.2303 6.32 3.09697 4.15 5.6 2.49C8.10303 0.83 10.903 0 14 0C17.097 0 19.897 0.83 22.4 2.49C24.903 4.15 26.7697 6.32 28 9C26.7697 11.68 24.903 13.85 22.4 15.51C19.897 17.17 17.097 18 14 18ZM13.9946 16.2C16.5649 16.2 18.9265 15.545 21.0795 14.235C23.2326 12.925 24.8712 11.18 25.9955 9C24.8712 6.82 23.2344 5.075 21.0849 3.765C18.9355 2.455 16.5756 1.8 14.0054 1.8C11.4351 1.8 9.07348 2.455 6.92045 3.765C4.76742 5.075 3.11818 6.82 1.97273 9C3.11818 11.18 4.76563 12.925 6.91508 14.235C9.06452 15.545 11.4244 16.2 13.9946 16.2Z" fill="#60CEDD"/>
</g>
<defs>
<clipPath id="clip0_268_349">
<rect width="28" height="18" fill="white"/>
</clipPath>
</defs>
</svg>
