<svg width="60" height="40" viewBox="0 0 60 40" fill="none" xmlns="http://www.w3.org/2000/svg">
<path d="M34.0909 23.75C31.8182 23.75 29.8864 23.0208 28.2955 21.5625C26.7045 20.1042 25.9091 18.3333 25.9091 16.25C25.9091 14.1667 26.7045 12.3958 28.2955 10.9375C29.8864 9.47917 31.8182 8.75 34.0909 8.75C36.3636 8.75 38.2955 9.47917 39.8864 10.9375C41.4773 12.3958 42.2727 14.1667 42.2727 16.25C42.2727 18.3333 41.4773 20.1042 39.8864 21.5625C38.2955 23.0208 36.3636 23.75 34.0909 23.75ZM12.2727 32.5C11.1477 32.5 10.1847 32.1328 9.38352 31.3984C8.58239 30.6641 8.18182 29.7812 8.18182 28.75V3.75C8.18182 2.71875 8.58239 1.83594 9.38352 1.10156C10.1847 0.367188 11.1477 0 12.2727 0H55.9091C57.0341 0 57.9972 0.367188 58.7983 1.10156C59.5994 1.83594 60 2.71875 60 3.75V28.75C60 29.7812 59.5994 30.6641 58.7983 31.3984C57.9972 32.1328 57.0341 32.5 55.9091 32.5H12.2727ZM19.0909 28.75H49.0909C49.0909 27 49.75 25.5208 51.0682 24.3125C52.3864 23.1042 54 22.5 55.9091 22.5V10C54 10 52.3864 9.39583 51.0682 8.1875C49.75 6.97917 49.0909 5.5 49.0909 3.75H19.0909C19.0909 5.5 18.4318 6.97917 17.1136 8.1875C15.7955 9.39583 14.1818 10 12.2727 10V22.5C14.1818 22.5 15.7955 23.1042 17.1136 24.3125C18.4318 25.5208 19.0909 27 19.0909 28.75ZM51.8182 40H4.09091C2.96591 40 2.00284 39.6328 1.2017 38.8984C0.400568 38.1641 0 37.2812 0 36.25V7.5H4.09091V36.25H51.8182V40Z" fill="#6FB98F"/>
</svg>
